<svg width="12" height="7" viewBox="0 0 12 7" fill="none" xmlns="http://www.w3.org/2000/svg">
<path d="M11.1729 2.13631C9.69651 3.63617 8.22499 5.12869 6.75741 6.62521C6.54147 6.8454 6.31235 7.0137 5.98864 6.99912C5.74039 6.98794 5.54287 6.87889 5.37071 6.7036C4.42472 5.7404 3.47705 4.7789 2.52998 3.81678C1.77973 3.05461 1.02825 2.29369 0.279772 1.52973C-0.209223 1.03063 -0.0331196 0.245438 0.620449 0.0415297C0.95628 -0.0632472 1.25595 0.0342196 1.50573 0.288923C2.29731 1.09608 3.0903 1.90181 3.88257 2.70826C4.567 3.40493 5.25247 4.10054 5.9337 4.80043C6.01063 4.87947 6.0518 4.87334 6.1255 4.79823C7.58806 3.30784 9.05312 1.81999 10.5178 0.331719C10.7881 0.0570195 11.1508 -0.017355 11.4841 0.132888C11.8249 0.286514 12.0221 0.614667 11.998 0.999678C11.9845 1.21671 11.895 1.40167 11.744 1.55558C11.5559 1.74733 11.3674 1.93872 11.1729 2.13631Z" fill="#020202"/>
</svg>
