<svg width="61" height="26" viewBox="0 0 61 26" fill="none" xmlns="http://www.w3.org/2000/svg">
<path d="M10.9512 24.2997C7.80512 23.9416 4.68895 23.589 1.57277 23.2364C1.57184 23.2008 1.57092 23.1653 1.56999 23.1298C1.82055 23.0898 2.07111 23.0497 2.3914 22.9985C1.56162 22.3188 1.25171 21.4127 1.043 20.4648C0.823983 19.4701 0.824791 18.4623 0.960387 17.4564C1.01339 17.0632 1.00657 16.6754 0.966065 16.2838C0.856429 15.2237 0.983975 14.202 1.48734 13.2474C1.88085 12.5012 2.44939 12.2667 3.26164 12.5162C3.93491 12.723 4.40542 13.1703 4.70396 13.7959C5.15564 14.7424 5.44867 15.7367 5.62084 16.7728C5.73596 17.4656 5.82608 18.1663 6.04829 18.9122C6.17195 18.6131 6.14201 18.3587 6.1656 18.1187C6.21379 17.6287 6.22878 17.1352 6.24945 16.6428C6.26698 16.2253 6.30916 16.1892 6.73704 16.249C8.12629 16.4433 9.51627 16.6324 10.9051 16.8293C12.7937 17.0971 14.6815 17.3706 16.5697 17.6409C17.0803 17.714 17.5897 17.7986 18.1025 17.8504C18.3577 17.8762 18.6208 17.8427 18.7504 17.5536C18.63 17.3788 18.4422 17.4006 18.286 17.3744C14.8203 16.7929 11.3909 16.0333 7.95926 15.2845C7.45475 15.1745 6.95492 15.0421 6.44868 14.9413C6.19988 14.8918 6.10058 14.7726 6.06039 14.5214C5.86104 13.2755 5.40621 12.1469 4.46834 11.2576C4.13426 10.9408 3.73579 10.7451 3.2863 10.6465C2.84664 10.5499 2.49638 10.6843 2.20469 11.0218C1.38787 11.967 1.01323 13.0817 0.889656 14.306C0.792753 15.2661 0.83427 16.226 0.853935 17.2134C0.632768 17.1534 0.612558 16.9658 0.559949 16.8277C-0.0399506 15.2535 -0.231514 13.6618 0.353205 12.0326C0.577964 11.4064 0.695992 10.7585 0.664096 10.0858C0.647004 9.72533 0.74797 9.37659 0.833556 9.02749C0.904665 8.73744 1.06652 8.66174 1.35221 8.71595C2.64246 8.96077 3.93457 9.19594 5.22713 9.4284C6.89509 9.72838 8.5648 10.0187 10.2325 10.3199C13.2587 10.8665 16.2839 11.4184 19.3097 11.9672C19.7008 12.0381 20.1047 12.0514 20.5186 12.2088C19.0571 14.5062 19.5719 16.8652 20.1853 19.2274C20.1337 18.5489 20.0689 17.8711 20.0331 17.1917C19.9359 15.348 20.4118 13.7109 21.9054 12.5172C23.1948 11.4867 24.491 11.5914 25.6814 12.7445C26.6695 13.7015 27.2948 14.886 27.8172 16.1366C28.1245 16.872 28.3431 17.6369 28.6146 18.3897C28.6337 17.8042 28.4781 17.2406 28.401 16.6681C28.3215 16.0773 28.1556 15.5065 27.9875 14.9372C27.8215 14.3746 27.6383 13.8171 27.4418 13.1909C28.2376 13.2652 28.9547 13.4357 29.6929 13.4328C29.0616 13.2264 28.5288 12.869 28.0438 12.4321C27.7198 12.1403 27.4601 11.8126 27.3857 11.3663C27.3569 11.1935 27.3542 11.0328 27.4732 10.8884C27.6336 10.8639 27.7159 10.9919 27.818 11.069C28.7019 11.7366 29.6266 12.3278 30.7292 12.5654C31.478 12.7268 32.2453 12.7388 33.0062 12.7775C34.4301 12.85 35.8557 12.9423 37.2788 12.745C37.8207 12.6699 37.952 12.5473 38.0126 12.0084C38.0264 11.8859 38.0445 11.7638 38.0552 11.641C38.1071 11.0482 37.8619 10.6965 37.2952 10.5628C36.072 10.2742 34.8472 9.99236 33.6245 9.70166C33.2496 9.61251 32.8818 9.69796 32.521 9.7534C32.0399 9.82732 31.6059 9.77357 31.1451 9.6033C29.4355 8.97165 27.6694 8.54946 25.8698 8.25506C24.6086 8.04877 23.3373 7.93351 22.0682 7.77756C24.5265 8.36219 26.9789 8.96445 29.4042 9.65826C29.3851 9.83043 29.2697 9.83742 29.1793 9.86672C28.5459 10.0721 27.9528 10.362 27.3769 10.6936C26.8927 10.9724 26.3428 10.9637 25.8084 11.0107C25.6468 11.0249 25.5473 10.8971 25.4333 10.8084C24.8276 10.3374 24.1782 9.98831 23.3767 10.0046C22.6839 10.0187 22.119 10.3038 21.6368 10.7746C21.4728 10.9346 21.3166 10.9977 21.0712 10.9673C18.9214 10.7005 16.7818 10.3632 14.6383 10.0537C12.8059 9.78911 10.9738 9.52203 9.14149 9.2572C6.64243 8.89602 4.14321 8.53599 1.64412 8.1751C1.54505 8.16079 1.4405 8.1575 1.34476 8.02938C1.50976 7.54532 1.86134 7.17097 2.31754 6.95895C3.38094 6.46473 4.19977 5.691 5.01574 4.87629C6.98693 2.90816 9.36762 1.6165 12.0311 0.828466C14.1375 0.20527 16.292 -0.0326412 18.4846 0.0035531C19.8889 0.0267338 21.2946 -0.0125579 22.6981 0.0285536C24.3472 0.0768577 25.9937 0.185863 27.6391 0.323555C29.0282 0.439798 30.4058 0.60585 31.7729 0.876649C32.2687 0.974861 32.7076 1.19542 33.1413 1.42799C33.9528 1.86311 34.74 2.34046 35.4929 2.87169C35.59 2.94018 35.7074 2.99937 35.7389 3.16819C35.5362 3.17279 35.4084 3.03891 35.2674 2.95149C34.3781 2.40009 33.4579 1.91464 32.4752 1.5444C31.7265 1.26233 30.9389 1.23126 30.1626 1.13451C27.9086 0.853586 25.6437 0.738937 23.3727 0.764221C22.0825 0.778584 20.7876 0.739181 19.5108 0.982661C19.2142 1.03922 18.9213 1.12445 18.6345 1.21999C18.3959 1.29949 18.2977 1.4594 18.4183 1.71786C19.0541 3.08 19.7038 4.43436 20.4911 5.71861C20.6978 6.05583 20.962 6.24116 21.3729 6.30005C22.2663 6.4281 23.1647 6.43076 24.0607 6.46029C26.2739 6.53324 28.4869 6.43101 30.6996 6.39325C32.305 6.36585 33.9103 6.3066 35.5154 6.25765C36.7849 6.21894 38.0537 6.20631 39.3231 6.19988C39.4101 6.19944 39.5011 6.21247 39.6075 6.139C39.2624 5.59026 38.6543 5.31102 38.2012 4.74071C39.0031 4.82126 39.7082 4.87187 40.3453 5.18967C40.6549 5.3441 40.7885 5.69886 40.8988 6.00985C40.9795 6.23754 41.1112 6.30709 41.3093 6.32057C42.2848 6.38699 43.2506 6.53635 44.2161 6.67809C46.1632 6.96392 48.0878 7.352 49.9132 8.11906C50.4435 8.34194 50.9444 8.62071 51.3437 9.0478C51.4258 9.13566 51.5147 9.2286 51.5036 9.41205C50.9138 9.54788 50.5036 9.97689 50.0742 10.3849C49.907 10.5438 49.8593 10.7032 49.9103 10.9241C50.0774 11.6473 50.6791 12.0569 51.3925 11.9394C51.7629 11.8783 52.1051 11.7402 52.4529 11.614C52.8627 11.4655 53.0451 11.5167 53.2654 11.8936C53.5802 12.4321 53.7403 13.0242 53.8585 13.6344C54.2283 15.5435 54.1806 17.438 53.7722 19.3391C53.6049 20.1182 53.2252 20.5296 52.4194 20.6797C51.0699 20.931 49.7175 21.114 48.3479 21.1825C48.2372 21.188 48.1228 21.1705 48.018 21.285C49.28 21.285 50.5421 21.285 51.9043 21.285C51.4187 22.1566 50.7389 22.7016 49.961 23.2813C53.6957 23.5024 57.3353 23.7179 61 23.9348C60.9366 24.105 60.845 24.0709 60.7774 24.073C58.6333 24.1388 56.4966 24.3266 54.3565 24.4597C52.8437 24.5539 51.3301 24.6348 49.8176 24.7329C47.1963 24.9031 44.576 25.0874 41.9546 25.255C40.5542 25.3446 39.152 25.4055 37.7513 25.4909C36.1935 25.5858 34.6369 25.7005 33.079 25.7939C32.0032 25.8583 30.9251 25.8856 29.8497 25.9567C27.2561 26.128 24.6976 25.7519 22.1279 25.5123C20.2612 25.3383 18.4019 25.1012 16.5352 24.9298C15.0712 24.7954 13.6127 24.6006 12.1517 24.4335C11.7617 24.3889 11.3713 24.3478 10.9512 24.2997ZM17.783 4.4241C17.9828 4.48452 18.0945 4.63385 18.1765 4.81297C18.3223 5.13103 18.4679 5.44911 18.6136 5.76719C18.2328 4.51152 17.8389 3.26347 17.2129 2.1052C16.9249 1.57217 16.4843 1.24681 15.8814 1.20042C15.1645 1.14527 14.4446 1.16882 13.7348 1.29835C12.2075 1.57704 10.7835 2.14378 9.4212 2.87337C8.53003 3.35065 7.6633 3.8695 6.86164 4.48754C6.45402 4.80179 6.21446 5.22102 6.30994 5.74537C6.40479 6.26625 6.79843 6.52595 7.27529 6.67353C7.54482 6.75694 7.82483 6.78934 8.10493 6.80186C9.85376 6.88003 11.603 6.94812 13.3517 7.03043C14.3602 7.0779 15.3673 7.15461 16.3758 7.20078C16.8819 7.22395 17.3896 7.22454 17.9599 7.29098C17.7167 7.00187 17.4691 6.9794 17.2042 6.97719C16.3519 6.97011 15.4969 7.03737 14.6487 6.90909C14.4477 6.87869 14.2288 6.85007 14.1055 6.64307C14.212 6.51375 14.3444 6.55154 14.4618 6.54924C14.9221 6.54025 15.3828 6.54604 15.8428 6.532C16.2129 6.52071 16.5826 6.49307 16.9517 6.46327C17.0592 6.4546 17.2003 6.44454 17.2158 6.30478C17.2316 6.16295 17.1167 6.09229 16.9967 6.04133C16.8275 5.96945 16.6491 5.95851 16.4688 5.95301C15.654 5.92815 14.861 6.07923 14.0707 6.24937C13.597 6.35134 13.3459 6.09432 13.4685 5.61908C13.5738 5.21108 13.8813 4.97667 14.2416 4.83119C15.3637 4.37805 16.5215 4.16909 17.783 4.4241ZM26.499 15.5378C26.1901 15.2503 25.8326 15.0424 25.4302 14.9205C24.43 14.6176 23.284 15.0382 22.5391 15.9726C21.0913 17.7883 20.8535 20.5576 21.9874 22.5873C22.3731 23.2778 22.8934 23.8467 23.6672 24.1155C24.8549 24.528 26.0946 24.0413 26.9139 22.8929C27.8135 21.632 28.0843 20.217 27.9508 18.7149C27.844 17.5146 27.4447 16.4219 26.499 15.5378ZM41.1933 14.5867C41.0621 14.5964 40.9253 14.5756 40.8065 14.7172C43.8246 14.7172 46.8427 14.7172 49.8607 14.7172C49.8617 14.7496 49.8627 14.782 49.8637 14.8144C46.8728 15.143 43.8818 15.4716 40.8908 15.8002C40.8917 15.8119 40.8926 15.8236 40.8936 15.8352C43.5735 15.795 46.2534 15.7547 48.9334 15.7144C48.9358 15.7587 48.9383 15.803 48.9408 15.8474C46.2148 16.1969 43.4888 16.5464 40.7628 16.8958C43.2397 16.9219 45.7144 16.8869 48.1892 16.8341C48.1918 16.8815 48.1944 16.9289 48.197 16.9762C45.4365 17.3406 42.6761 17.7049 39.9157 18.0692C39.9186 18.1078 39.9215 18.1463 39.9244 18.1849C42.2046 18.1849 44.4847 18.1849 46.7649 18.1849C46.7677 18.2253 46.7704 18.2658 46.7732 18.3062C44.3798 18.581 41.9865 18.8557 39.5931 19.1304C41.7635 19.2939 43.9303 19.2338 46.0949 19.2711C46.0977 19.3181 46.1004 19.3651 46.1031 19.4121C43.6994 19.6732 41.2956 19.9344 38.8918 20.1956C39.2117 20.2904 39.5304 20.3363 39.8487 20.3335C42.4547 20.3107 45.0567 20.1829 47.6551 19.9906C48.5387 19.9252 49.4178 19.8016 50.301 19.7298C50.7816 19.6907 51.0598 19.4677 51.1816 19.0036C51.2827 18.6184 51.3021 18.2297 51.3071 17.8371C51.3202 16.8203 51.175 15.8247 50.8781 14.8535C50.7407 14.404 50.6146 14.3266 50.1445 14.3198C49.7962 14.3148 49.4477 14.3106 49.0995 14.317C46.4828 14.3649 43.8684 14.4783 41.1933 14.5867ZM46.411 13.07C47.0902 12.9868 47.7723 12.9183 48.4335 12.7302C49.2997 12.4838 49.7144 11.5651 49.3475 10.7451C49.2213 10.4629 49.0513 10.3718 48.7399 10.4308C47.8791 10.594 47.0075 10.6866 46.1327 10.7337C44.2697 10.8342 42.4046 10.8092 40.54 10.8055C40.0111 10.8044 39.589 11.1711 39.5312 11.6829C39.476 12.1716 39.9135 12.852 40.3438 12.9401C41.1711 13.1094 42.0114 13.1698 42.852 13.2039C44.0202 13.2512 45.1869 13.2046 46.411 13.07ZM3.90562 15.8687C3.53281 15.6392 3.15742 15.6401 2.79968 15.888C2.54539 16.0642 2.37995 16.3232 2.24729 16.5985C1.80054 17.5258 1.69363 18.5049 1.81817 19.5155C1.86032 19.8577 1.92002 20.1976 1.9717 20.5386C1.94349 20.5422 1.91528 20.5458 1.88707 20.5494C1.4855 19.681 1.424 18.7546 1.46548 17.8106C1.34991 18.5146 1.33233 19.2193 1.44909 19.9193C1.56382 20.6071 1.7247 21.2868 2.17126 21.851C2.62088 22.4192 3.27528 22.4388 3.76615 21.9051C3.99528 21.656 4.16979 21.369 4.30908 21.0595C4.93051 19.6787 4.9701 18.2306 4.7364 16.7747C4.63462 16.1406 4.42853 15.5065 3.92946 15.0307C3.62668 14.742 3.26992 14.6805 2.9028 14.8405C2.53604 15.0004 2.30143 15.3081 2.10562 15.7474C2.51631 15.3439 2.87424 14.9961 3.42585 15.1858C3.90642 15.351 4.20188 15.705 4.38826 16.2109C4.15719 16.1604 4.08861 15.9802 3.90562 15.8687ZM48.3656 8.70518C48.5057 8.65802 48.632 8.587 48.741 8.4867C48.9879 8.25938 48.9778 8.1257 48.6707 7.99698C48.403 7.88474 48.1242 7.78712 47.8411 7.72489C46.1858 7.36106 44.5036 7.17377 42.8259 6.9459C40.8492 6.67742 38.8713 6.59348 36.8828 6.65233C36.5192 6.6631 36.1565 6.70679 35.7935 6.73528C35.8319 6.80068 35.8702 6.80981 35.9091 6.81442C37.9795 7.0597 40.0666 7.16435 42.1209 7.54603C42.4843 7.61355 42.856 7.65098 43.2009 7.79237C43.4912 7.91141 43.5154 8.09907 43.2745 8.29484C43.1158 8.42383 42.9254 8.49373 42.7353 8.56434C42.1791 8.77093 41.6029 8.90252 41.0197 9.01699C42.7854 9.12223 44.547 9.13948 46.309 9.09846C46.9971 9.08244 47.6708 8.97055 48.3656 8.70518ZM11.6015 20.6549C10.7395 20.6043 9.87684 20.5619 9.01575 20.4985C8.72653 20.4773 8.57207 20.5495 8.48008 20.8509C8.33019 21.3421 8.14666 21.8268 7.84686 22.2552C7.81033 22.3074 7.76277 22.3658 7.83337 22.4618C12.0483 22.0934 16.2662 21.5789 20.5574 21.3581C20.4018 21.1885 20.2351 21.2054 20.0919 21.1965C18.4242 21.0934 16.7557 21.0031 15.0881 20.8997C13.9462 20.8289 12.8053 20.7429 11.6015 20.6549ZM7.82388 19.3123C7.51172 19.4332 7.17577 19.4977 6.84396 19.6828C7.29234 19.8916 7.71526 19.9234 8.14301 19.9359C9.19708 19.9665 10.2512 19.9962 11.305 20.0343C13.2106 20.103 15.1158 20.1831 17.0216 20.2412C17.2111 20.2469 17.5007 20.2877 17.5624 20.0177C17.6215 19.7587 17.3672 19.6698 17.1873 19.5644C17.0914 19.5082 16.9835 19.4713 16.8792 19.4306C16.3403 19.2205 15.7711 19.1543 15.203 19.0914C13.5262 18.9057 11.843 18.9284 10.16 18.9493C9.38205 18.9589 8.61664 19.0479 7.82388 19.3123ZM43.3371 22.7743C43.0811 22.5087 42.7932 22.2662 42.5781 21.9709C42.3678 21.682 42.1231 21.6282 41.7971 21.6528C39.5495 21.8222 37.3026 21.9986 35.0481 22.0711C34.3584 22.0932 33.6598 22.0689 32.9725 22.2049C33.0914 22.2401 33.211 22.2669 33.3317 22.2743C35.2459 22.3919 37.1604 22.5062 39.0747 22.6229C40.1041 22.6857 41.1327 22.7657 42.163 22.8089C42.5544 22.8254 42.9496 22.9313 43.3371 22.7743ZM33.2388 16.2785C32.6132 16.4319 32.0268 16.685 31.4581 16.9814C31.3179 17.0545 31.1897 17.1404 31.1689 17.3244C31.0699 18.1979 31.0807 19.068 31.2297 19.9356C31.258 20.1004 31.3074 20.243 31.5024 20.2693C32.055 20.3438 32.6077 20.418 33.1604 20.4923C32.8781 20.3638 32.5927 20.2643 32.3 20.1956C32.0506 20.1371 31.9093 19.9968 31.85 19.7551C31.7217 19.2324 31.6097 18.7087 31.5897 18.1669C31.5775 17.8366 31.7103 17.6093 31.9864 17.4462C32.6117 17.0767 33.2499 16.783 34.0125 16.8286C34.6558 16.867 35.3031 16.8365 35.9487 16.8365C35.0727 16.5718 34.2035 16.3224 33.2388 16.2785ZM36.8573 15.2937C36.9494 15.1066 36.9608 14.9066 36.9426 14.7047C36.9032 14.268 36.5747 13.9286 36.177 13.9069C35.756 13.8839 35.4117 14.1486 35.2993 14.5815C35.177 15.0525 35.3802 15.5369 35.7773 15.7214C36.1676 15.9026 36.5088 15.7797 36.8573 15.2937ZM52.9155 15.7833C53.2096 15.8937 53.3237 16.1422 53.3344 16.4191C53.3685 17.2983 53.3695 18.1761 52.7246 18.8917C52.7171 18.9 52.7331 18.9295 52.7398 18.9557C53.024 18.9663 53.153 18.825 53.2114 18.551C53.368 17.8167 53.4829 17.0763 53.5704 16.3317C53.6029 16.0551 53.6093 15.7739 53.5452 15.4955C53.4921 15.2644 53.3628 15.2012 53.1508 15.2878C52.8591 15.4069 52.6096 15.5917 52.3662 15.7961C52.5347 15.7622 52.6973 15.7362 52.9155 15.7833ZM52.1686 13.6955C51.9556 13.5795 51.8842 13.7509 51.8214 13.8853C51.7141 14.1148 51.6982 14.3617 51.7689 14.6068C51.7974 14.7058 51.7724 14.8532 51.928 14.8685C52.0855 14.8841 52.1813 14.7813 52.2311 14.6491C52.3466 14.3421 52.3262 14.0354 52.1686 13.6955Z" fill="black"/>
<path d="M34.5971 10.0017C35.5172 10.0581 36.3493 10.2973 37.1493 10.6402C37.3767 10.7377 37.6039 10.8389 37.78 11.0051C38.1595 11.363 38.0359 11.7852 37.5023 11.8854C36.9319 11.9925 36.3457 11.9784 35.7652 11.9882C35.4531 11.9934 35.1361 12.0305 34.8175 11.9389C35.4574 11.7156 36.1767 11.7048 36.8278 11.3152C35.9682 10.6891 34.9473 10.497 34 10.0978C34.2057 9.95433 34.393 10.0152 34.5971 10.0017Z" fill="black"/>
<path d="M21.4423 21.7238C20.6963 19.6963 20.8512 17.7998 22.2349 16.0865C22.787 15.4029 23.5327 14.9755 24.4757 15.0011C25.6556 15.0331 26.6604 16.035 26.9992 16.9312C27.0047 16.9457 26.9809 16.9703 26.9598 17.0119C26.7875 16.9036 26.7025 16.7299 26.5843 16.5887C25.5602 15.3649 23.9494 15.2891 22.8171 16.426C22.0072 17.2391 21.6101 18.237 21.5057 19.3379C21.3893 20.5663 21.5536 21.7478 22.2952 22.8031C22.3118 22.8268 22.3033 22.8666 22.3166 23C21.8489 22.6286 21.6543 22.1865 21.4423 21.7238Z" fill="black"/>
</svg>
