<svg width="66" height="26" viewBox="0 0 66 26" fill="none" xmlns="http://www.w3.org/2000/svg">
<path d="M11.6812 24.2997C8.32547 23.9416 5.00154 23.589 1.67762 23.2364C1.67663 23.2008 1.67564 23.1653 1.67465 23.1298C1.94192 23.0898 2.20918 23.0497 2.55083 22.9985C1.66573 22.3188 1.33516 21.4127 1.11253 20.4648C0.878916 19.4701 0.879777 18.4623 1.02441 17.4564C1.08095 17.0632 1.07367 16.6754 1.03047 16.2838C0.913525 15.2237 1.04957 14.202 1.5865 13.2474C2.00624 12.5012 2.61269 12.2667 3.47908 12.5162C4.19724 12.723 4.69912 13.1703 5.01755 13.7959C5.49935 14.7424 5.81191 15.7367 5.99556 16.7728C6.11836 17.4656 6.21448 18.1663 6.4515 18.9122C6.58342 18.6131 6.55147 18.3587 6.57664 18.1187C6.62805 17.6287 6.64404 17.1352 6.66608 16.6428C6.68478 16.2253 6.72977 16.1892 7.18618 16.249C8.66804 16.4433 10.1507 16.6324 11.6321 16.8293C13.6466 17.0971 15.6603 17.3706 17.6743 17.6409C18.2189 17.714 18.7624 17.7986 19.3093 17.8504C19.5816 17.8762 19.8622 17.8427 20.0004 17.5536C19.872 17.3788 19.6717 17.4006 19.5051 17.3744C15.8083 16.7929 12.1503 16.0333 8.48988 15.2845C7.95174 15.1745 7.41858 15.0421 6.87859 14.9413C6.6132 14.8918 6.50729 14.7726 6.46441 14.5214C6.25177 13.2755 5.76662 12.1469 4.76622 11.2576C4.40988 10.9408 3.98484 10.7451 3.50539 10.6465C3.03642 10.5499 2.66281 10.6843 2.35167 11.0218C1.4804 11.967 1.08078 13.0817 0.948966 14.306C0.845603 15.2661 0.889888 16.226 0.910864 17.2134C0.674952 17.1534 0.653395 16.9658 0.597279 16.8277C-0.042614 15.2535 -0.246948 13.6618 0.376752 12.0326C0.616495 11.4064 0.742392 10.7585 0.708369 10.0858C0.690138 9.72533 0.797834 9.37659 0.889126 9.02749C0.964976 8.73744 1.13763 8.66174 1.44236 8.71595C2.81862 8.96077 4.19688 9.19594 5.57561 9.4284C7.35476 9.72838 9.13578 10.0187 10.9147 10.3199C14.1426 10.8665 17.3695 11.4184 20.597 11.9672C21.0142 12.0381 21.445 12.0514 21.8865 12.2088C20.3276 14.5062 20.8767 16.8652 21.5309 19.2274C21.4759 18.5489 21.4068 17.8711 21.3686 17.1917C21.265 15.348 21.7726 13.7109 23.3658 12.5172C24.7411 11.4867 26.1238 11.5914 27.3935 12.7445C28.4475 13.7015 29.1144 14.886 29.6717 16.1366C29.9994 16.872 30.2326 17.6369 30.5223 18.3897C30.5426 17.8042 30.3766 17.2406 30.2944 16.6681C30.2096 16.0773 30.0326 15.5065 29.8534 14.9372C29.6763 14.3746 29.4809 13.8171 29.2713 13.1909C30.1201 13.2652 30.8851 13.4357 31.6724 13.4328C30.999 13.2264 30.4307 12.869 29.9134 12.4321C29.5678 12.1402 29.2908 11.8126 29.2114 11.3663C29.1807 11.1935 29.1778 11.0328 29.3047 10.8884C29.4758 10.8639 29.5637 10.9919 29.6725 11.069C30.6153 11.7366 31.6017 12.3278 32.7778 12.5654C33.5765 12.7268 34.3949 12.7388 35.2066 12.7775C36.7255 12.85 38.2461 12.9423 39.7641 12.745C40.3421 12.6699 40.4821 12.5473 40.5468 12.0084C40.5615 11.8859 40.5808 11.7638 40.5922 11.641C40.6476 11.0482 40.3861 10.6965 39.7815 10.5628C38.4768 10.2742 37.1703 9.99236 35.8661 9.70166C35.4662 9.61251 35.0739 9.69796 34.6891 9.7534C34.1759 9.82732 33.713 9.77357 33.2214 9.6033C31.3979 8.97165 29.5141 8.54946 27.5944 8.25506C26.2492 8.04877 24.8931 7.93351 23.5394 7.77756C26.1616 8.36219 28.7775 8.96445 31.3645 9.65826C31.3441 9.83043 31.221 9.83742 31.1246 9.86672C30.449 10.0721 29.8163 10.362 29.202 10.6936C28.6856 10.9724 28.099 10.9637 27.5289 11.0107C27.3566 11.0249 27.2505 10.8971 27.1288 10.8084C26.4828 10.3374 25.7901 9.98831 24.9352 10.0046C24.1961 10.0187 23.5936 10.3038 23.0792 10.7746C22.9043 10.9346 22.7377 10.9977 22.476 10.9673C20.1828 10.7005 17.9006 10.3632 15.6141 10.0537C13.6596 9.78911 11.7054 9.52203 9.75092 9.2572C7.08526 8.89602 4.41943 8.53599 1.75372 8.1751C1.64805 8.16079 1.53653 8.1575 1.43441 8.02938C1.61041 7.54532 1.98543 7.17097 2.47205 6.95895C3.60633 6.46473 4.47975 5.691 5.35012 4.87629C7.45272 2.90816 9.99213 1.6165 12.8332 0.828466C15.08 0.20527 17.3781 -0.0326412 19.7169 0.0035531C21.2148 0.0267338 22.7142 -0.0125579 24.2113 0.0285536C25.9704 0.0768577 27.7266 0.185863 29.4817 0.323555C30.9634 0.439798 32.4329 0.60585 33.8911 0.876649C34.4199 0.974861 34.8881 1.19542 35.3507 1.42799C36.2163 1.86311 37.056 2.34046 37.8591 2.87169C37.9627 2.94018 38.0879 2.99937 38.1215 3.16819C37.9052 3.17279 37.7689 3.03891 37.6186 2.95149C36.67 2.40009 35.6884 1.91464 34.6402 1.5444C33.8416 1.26233 33.0015 1.23126 32.1734 1.13451C29.7692 0.853586 27.3533 0.738937 24.9309 0.764221C23.5547 0.778584 22.1734 0.739181 20.8115 0.982661C20.4952 1.03922 20.1827 1.12445 19.8768 1.21999C19.6223 1.29949 19.5176 1.4594 19.6462 1.71786C20.3244 3.08 21.0174 4.43436 21.8572 5.71861C22.0777 6.05583 22.3595 6.24116 22.7977 6.30005C23.7507 6.4281 24.709 6.43076 25.6648 6.46029C28.0254 6.53324 30.3861 6.43101 32.7463 6.39325C34.4586 6.36585 36.171 6.3066 37.8831 6.25765C39.2372 6.21894 40.5906 6.20631 41.9446 6.19988C42.0374 6.19944 42.1345 6.21247 42.248 6.139C41.8799 5.59026 41.2312 5.31102 40.7479 4.74071C41.6033 4.82126 42.3554 4.87187 43.035 5.18967C43.3652 5.3441 43.5077 5.69886 43.6254 6.00985C43.7115 6.23754 43.852 6.30709 44.0632 6.32057C45.1038 6.38699 46.134 6.53635 47.1639 6.67809C49.2407 6.96392 51.2936 7.352 53.2407 8.11906C53.8064 8.34194 54.3407 8.62071 54.7666 9.0478C54.8542 9.13566 54.949 9.2286 54.9372 9.41205C54.3081 9.54788 53.8705 9.97689 53.4124 10.3849C53.2341 10.5438 53.1833 10.7032 53.2377 10.9241C53.4159 11.6473 54.0577 12.0569 54.8187 11.9394C55.2137 11.8783 55.5787 11.7402 55.9498 11.614C56.3869 11.4655 56.5815 11.5167 56.8164 11.8936C57.1522 12.4321 57.3229 13.0242 57.449 13.6344C57.8436 15.5435 57.7926 17.438 57.357 19.3391C57.1785 20.1182 56.7735 20.5296 55.914 20.6797C54.4746 20.931 53.032 21.114 51.5711 21.1825C51.453 21.188 51.331 21.1705 51.2192 21.285C52.5654 21.285 53.9115 21.285 55.3645 21.285C54.8466 22.1566 54.1215 22.7016 53.2917 23.2813C57.2754 23.5024 61.1577 23.7179 65.0667 23.9348C64.999 24.105 64.9014 24.0709 64.8293 24.073C62.5422 24.1388 60.263 24.3266 57.9803 24.4597C56.3666 24.5539 54.7521 24.6348 53.1387 24.7329C50.3427 24.9031 47.5477 25.0874 44.7516 25.255C43.2578 25.3446 41.7621 25.4055 40.268 25.4909C38.6064 25.5858 36.946 25.7005 35.2843 25.7939C34.1368 25.8583 32.9867 25.8856 31.8397 25.9567C29.0732 26.128 26.3441 25.7519 23.603 25.5123C21.612 25.3383 19.6287 25.1012 17.6375 24.9298C16.0759 24.7954 14.5203 24.6006 12.9618 24.4335C12.5458 24.3889 12.1294 24.3478 11.6812 24.2997ZM18.9685 4.4241C19.1816 4.48452 19.3008 4.63385 19.3883 4.81297C19.5437 5.13103 19.6991 5.44911 19.8545 5.76719C19.4484 4.51152 19.0281 3.26347 18.3605 2.1052C18.0532 1.57217 17.5833 1.24681 16.9402 1.20042C16.1755 1.14527 15.4076 1.16882 14.6505 1.29835C13.0213 1.57704 11.5024 2.14378 10.0493 2.87337C9.09869 3.35065 8.17418 3.8695 7.31908 4.48754C6.88429 4.80179 6.62876 5.22102 6.7306 5.74537C6.83177 6.26625 7.25165 6.52595 7.76031 6.67353C8.04781 6.75694 8.34649 6.78934 8.64525 6.80186C10.5107 6.88003 12.3766 6.94812 14.2418 7.03043C15.3175 7.0779 16.3918 7.15461 17.4675 7.20078C18.0074 7.22395 18.5489 7.22454 19.1572 7.29098C18.8978 7.00187 18.6338 6.9794 18.3512 6.97719C17.4421 6.97011 16.53 7.03737 15.6253 6.90909C15.4109 6.87869 15.1774 6.85007 15.0458 6.64307C15.1594 6.51375 15.3007 6.55154 15.4259 6.54924C15.9169 6.54025 16.4083 6.54604 16.899 6.532C17.2937 6.52071 17.6881 6.49307 18.0818 6.46327C18.1965 6.45459 18.347 6.44454 18.3636 6.30478C18.3804 6.16295 18.2578 6.09229 18.1299 6.04133C17.9494 5.96945 17.7591 5.95851 17.5667 5.95301C16.6976 5.92815 15.8517 6.07923 15.0087 6.24937C14.5035 6.35134 14.2357 6.09432 14.3664 5.61908C14.4787 5.21108 14.8067 4.97667 15.191 4.83119C16.388 4.37805 17.623 4.16909 18.9685 4.4241ZM28.2656 15.5378C27.9361 15.2503 27.5547 15.0424 27.1255 14.9205C26.0587 14.6176 24.8363 15.0382 24.0417 15.9726C22.4974 17.7883 22.2437 20.5576 23.4532 22.5873C23.8646 23.2778 24.4196 23.8467 25.245 24.1155C26.5119 24.528 27.8342 24.0413 28.7082 22.8929C29.6677 21.632 29.9566 20.217 29.8141 18.7149C29.7003 17.5146 29.2744 16.4219 28.2656 15.5378ZM43.9396 14.5867C43.7996 14.5964 43.6537 14.5756 43.527 14.7172C46.7463 14.7172 49.9655 14.7172 53.1848 14.7172C53.1859 14.7496 53.1869 14.782 53.188 14.8144C49.9976 15.143 46.8072 15.4716 43.6169 15.8002C43.6178 15.8119 43.6188 15.8236 43.6198 15.8352C46.4784 15.795 49.337 15.7547 52.1956 15.7144C52.1982 15.7587 52.2009 15.803 52.2035 15.8474C49.2958 16.1969 46.3881 16.5464 43.4803 16.8958C46.1223 16.9219 48.7621 16.8869 51.4018 16.8341C51.4046 16.8815 51.4073 16.9289 51.4101 16.9762C48.4656 17.3406 45.5212 17.7049 42.5767 18.0692C42.5798 18.1078 42.5829 18.1463 42.586 18.1849C45.0182 18.1849 47.4504 18.1849 49.8826 18.1849C49.8855 18.2253 49.8885 18.2658 49.8914 18.3062C47.3385 18.581 44.7856 18.8557 42.2326 19.1304C44.5477 19.2939 46.859 19.2338 49.1679 19.2711C49.1709 19.3181 49.1738 19.3651 49.1767 19.4121C46.6127 19.6732 44.0486 19.9344 41.4846 20.1956C41.8258 20.2904 42.1657 20.3363 42.5052 20.3335C45.285 20.3107 48.0604 20.1829 50.8321 19.9906C51.7746 19.9252 52.7123 19.8016 53.6544 19.7298C54.167 19.6907 54.4638 19.4677 54.5937 19.0036C54.7015 18.6184 54.7222 18.2297 54.7276 17.8371C54.7415 16.8203 54.5866 15.8247 54.27 14.8535C54.1235 14.404 53.9889 14.3266 53.4874 14.3198C53.1159 14.3148 52.7442 14.3106 52.3728 14.317C49.5817 14.3649 46.793 14.4783 43.9396 14.5867ZM49.5051 13.07C50.2296 12.9868 50.9571 12.9183 51.6624 12.7302C52.5864 12.4838 53.0287 11.5651 52.6374 10.7451C52.5027 10.4629 52.3214 10.3718 51.9892 10.4308C51.0711 10.594 50.1413 10.6866 49.2082 10.7337C47.221 10.8342 45.2316 10.8092 43.2427 10.8055C42.6785 10.8044 42.2282 11.1711 42.1666 11.6829C42.1077 12.1716 42.5744 12.852 43.0334 12.9401C43.9158 13.1094 44.8122 13.1698 45.7088 13.2039C46.9548 13.2512 48.1994 13.2046 49.5051 13.07ZM4.16599 15.8687C3.76833 15.6392 3.36791 15.6401 2.98633 15.888C2.71509 16.0642 2.53861 16.3232 2.39711 16.5985C1.92058 17.5258 1.80654 18.5049 1.93938 19.5155C1.98435 19.8577 2.04802 20.1976 2.10315 20.5386C2.07306 20.5422 2.04297 20.5458 2.01288 20.5494C1.58453 19.681 1.51893 18.7546 1.56318 17.8106C1.43991 18.5146 1.42115 19.2193 1.5457 19.9193C1.66808 20.6071 1.83968 21.2868 2.31601 21.851C2.7956 22.4192 3.49364 22.4388 4.01723 21.9051C4.26164 21.656 4.44777 21.369 4.59635 21.0595C5.25921 19.6787 5.30144 18.2306 5.05216 16.7747C4.9436 16.1406 4.72376 15.5065 4.19143 15.0307C3.86846 14.742 3.48792 14.6805 3.09632 14.8405C2.70511 15.0004 2.45485 15.3081 2.24599 15.7474C2.68407 15.3439 3.06586 14.9961 3.65423 15.1858C4.16685 15.351 4.482 15.705 4.68081 16.2109C4.43434 16.1604 4.36119 15.9802 4.16599 15.8687ZM51.59 8.70518C51.7395 8.65802 51.8741 8.587 51.9904 8.4867C52.2538 8.25938 52.2429 8.12571 51.9154 7.99698C51.6298 7.88474 51.3325 7.78712 51.0305 7.72489C49.2649 7.36106 47.4705 7.17377 45.681 6.9459C43.5725 6.67742 41.4627 6.59348 39.3416 6.65233C38.9538 6.6631 38.567 6.70679 38.1797 6.73528C38.2207 6.80068 38.2616 6.80981 38.303 6.81442C40.5115 7.0597 42.7377 7.16435 44.9289 7.54603C45.3166 7.61355 45.7131 7.65098 46.0809 7.79237C46.3906 7.91141 46.4164 8.09907 46.1595 8.29484C45.9902 8.42383 45.7871 8.49373 45.5843 8.56434C44.9911 8.77093 44.3765 8.90252 43.7544 9.01699C45.6377 9.12223 47.5168 9.13948 49.3963 9.09846C50.1302 9.08244 50.8488 8.97055 51.59 8.70518ZM12.3749 20.6549C11.4554 20.6043 10.5353 20.5619 9.6168 20.4985C9.30829 20.4773 9.14354 20.5495 9.04541 20.8509C8.88553 21.3421 8.68977 21.8268 8.36999 22.2552C8.33102 22.3074 8.28029 22.3658 8.3556 22.4618C12.8515 22.0934 17.3507 21.5789 21.9279 21.3581C21.7619 21.1885 21.5842 21.2054 21.4313 21.1965C19.6525 21.0934 17.8728 21.0031 16.0939 20.8997C14.8759 20.8289 13.659 20.7429 12.3749 20.6549ZM8.34547 19.3123C8.0125 19.4332 7.65415 19.4977 7.30022 19.6828C7.77849 19.8916 8.22961 19.9234 8.68587 19.9359C9.81021 19.9665 10.9346 19.9962 12.0587 20.0343C14.0913 20.103 16.1235 20.1831 18.1564 20.2412C18.3585 20.2469 18.6675 20.2877 18.7332 20.0177C18.7963 19.7587 18.525 19.6698 18.3331 19.5644C18.2308 19.5082 18.1158 19.4713 18.0044 19.4306C17.4297 19.2205 16.8226 19.1543 16.2166 19.0914C14.428 18.9057 12.6325 18.9284 10.8373 18.9493C10.0075 18.9589 9.19108 19.0479 8.34547 19.3123ZM46.2262 22.7743C45.9531 22.5087 45.6461 22.2662 45.4167 21.9709C45.1923 21.682 44.9313 21.6282 44.5836 21.6528C42.1861 21.8222 39.7895 21.9986 37.3847 22.0711C36.6489 22.0932 35.9038 22.0689 35.1707 22.2049C35.2975 22.2401 35.425 22.2669 35.5538 22.2743C37.5956 22.3919 39.6377 22.5062 41.6796 22.6229C42.7777 22.6857 43.8749 22.7657 44.9738 22.8089C45.3913 22.8254 45.8129 22.9313 46.2262 22.7743ZM35.4547 16.2785C34.7874 16.4319 34.1619 16.685 33.5553 16.9814C33.4057 17.0545 33.269 17.1404 33.2468 17.3244C33.1412 18.1979 33.1527 19.068 33.3117 19.9356C33.3419 20.1004 33.3946 20.243 33.6025 20.2693C34.192 20.3438 34.7816 20.418 35.3711 20.4923C35.07 20.3638 34.7655 20.2643 34.4533 20.1956C34.1873 20.1371 34.0366 19.9968 33.9733 19.7551C33.8365 19.2324 33.717 18.7087 33.6957 18.1669C33.6827 17.8366 33.8244 17.6093 34.1188 17.4462C34.7859 17.0767 35.4666 16.783 36.28 16.8286C36.9661 16.867 37.6567 16.8365 38.3452 16.8365C37.4109 16.5718 36.4837 16.3224 35.4547 16.2785ZM39.3144 15.2937C39.4127 15.1066 39.4249 14.9066 39.4055 14.7047C39.3634 14.268 39.0131 13.9286 38.5888 13.9069C38.1398 13.8839 37.7724 14.1486 37.6526 14.5815C37.5222 15.0525 37.7388 15.5369 38.1625 15.7214C38.5788 15.9026 38.9427 15.7797 39.3144 15.2937ZM56.4432 15.7833C56.7569 15.8937 56.8786 16.1422 56.89 16.4191C56.9264 17.2983 56.9275 18.1761 56.2395 18.8917C56.2315 18.9 56.2486 18.9295 56.2558 18.9557C56.559 18.9663 56.6966 18.825 56.7589 18.551C56.9259 17.8167 57.0484 17.0762 57.1417 16.3317C57.1764 16.0551 57.1832 15.7739 57.1149 15.4955C57.0582 15.2644 56.9203 15.2012 56.6942 15.2878C56.383 15.4069 56.1169 15.5917 55.8573 15.7961C56.037 15.7622 56.2105 15.7362 56.4432 15.7833ZM55.6465 13.6955C55.4193 13.5795 55.3431 13.7509 55.2761 13.8853C55.1617 14.1148 55.1448 14.3617 55.2201 14.6068C55.2506 14.7058 55.2239 14.8532 55.3898 14.8685C55.5578 14.8841 55.66 14.7813 55.7131 14.6491C55.8364 14.3421 55.8146 14.0354 55.6465 13.6955Z" fill="white"/>
<path d="M36.9035 10.0017C37.8849 10.0581 38.7725 10.2973 39.6258 10.6402C39.8684 10.7377 40.1107 10.8389 40.2987 11.0051C40.7034 11.363 40.5716 11.7852 40.0024 11.8854C39.3939 11.9925 38.7686 11.9784 38.1495 11.9882C37.8165 11.9934 37.4784 12.0305 37.1386 11.9389C37.8211 11.7156 38.5884 11.7048 39.283 11.3152C38.366 10.6891 37.2771 10.497 36.2666 10.0978C36.486 9.95433 36.6858 10.0152 36.9035 10.0017Z" fill="white"/>
<path d="M22.8718 21.7238C22.0761 19.6963 22.2413 17.7998 23.7173 16.0865C24.3061 15.4029 25.1016 14.9755 26.1074 15.0011C27.366 15.0331 28.4378 16.035 28.7992 16.9312C28.805 16.9457 28.7797 16.9703 28.7572 17.0119C28.5734 16.9036 28.4827 16.7299 28.3566 16.5887C27.2642 15.3649 25.5461 15.2891 24.3383 16.426C23.4744 17.2391 23.0508 18.237 22.9395 19.3379C22.8152 20.5663 22.9905 21.7478 23.7816 22.8031C23.7993 22.8268 23.7902 22.8666 23.8044 23C23.3056 22.6286 23.0979 22.1865 22.8718 21.7238Z" fill="white"/>
</svg>
