<svg width="322" height="80" viewBox="0 0 322 80" fill="none" xmlns="http://www.w3.org/2000/svg">
<path d="M9.48 53.21C7.94 53.21 6.56 52.96 5.34 52.46C4.12 51.96 3.14 51.22 2.4 50.24C1.68 49.26 1.3 48.08 1.26 46.7H6.72C6.8 47.48 7.07 48.08 7.53 48.5C7.99 48.9 8.59 49.1 9.33 49.1C10.09 49.1 10.69 48.93 11.13 48.59C11.57 48.23 11.79 47.74 11.79 47.12C11.79 46.6 11.61 46.17 11.25 45.83C10.91 45.49 10.48 45.21 9.96 44.99C9.46 44.77 8.74 44.52 7.8 44.24C6.44 43.82 5.33 43.4 4.47 42.98C3.61 42.56 2.87 41.94 2.25 41.12C1.63 40.3 1.32 39.23 1.32 37.91C1.32 35.95 2.03 34.42 3.45 33.32C4.87 32.2 6.72 31.64 9 31.64C11.32 31.64 13.19 32.2 14.61 33.32C16.03 34.42 16.79 35.96 16.89 37.94H11.34C11.3 37.26 11.05 36.73 10.59 36.35C10.13 35.95 9.54 35.75 8.82 35.75C8.2 35.75 7.7 35.92 7.32 36.26C6.94 36.58 6.75 37.05 6.75 37.67C6.75 38.35 7.07 38.88 7.71 39.26C8.35 39.64 9.35 40.05 10.71 40.49C12.07 40.95 13.17 41.39 14.01 41.81C14.87 42.23 15.61 42.84 16.23 43.64C16.85 44.44 17.16 45.47 17.16 46.73C17.16 47.93 16.85 49.02 16.23 50C15.63 50.98 14.75 51.76 13.59 52.34C12.43 52.92 11.06 53.21 9.48 53.21ZM22.597 34.52C21.697 34.52 20.957 34.26 20.377 33.74C19.817 33.2 19.537 32.54 19.537 31.76C19.537 30.96 19.817 30.3 20.377 29.78C20.957 29.24 21.697 28.97 22.597 28.97C23.477 28.97 24.197 29.24 24.757 29.78C25.337 30.3 25.627 30.96 25.627 31.76C25.627 32.54 25.337 33.2 24.757 33.74C24.197 34.26 23.477 34.52 22.597 34.52ZM25.147 36.26V53H20.017V36.26H25.147ZM34.9247 36.02C36.1047 36.02 37.1347 36.26 38.0147 36.74C38.9147 37.22 39.6047 37.85 40.0847 38.63V36.26H45.2147V52.97C45.2147 54.51 44.9047 55.9 44.2847 57.14C43.6847 58.4 42.7547 59.4 41.4947 60.14C40.2547 60.88 38.7047 61.25 36.8447 61.25C34.3647 61.25 32.3547 60.66 30.8147 59.48C29.2747 58.32 28.3947 56.74 28.1747 54.74H33.2447C33.4047 55.38 33.7847 55.88 34.3847 56.24C34.9847 56.62 35.7247 56.81 36.6047 56.81C37.6647 56.81 38.5047 56.5 39.1247 55.88C39.7647 55.28 40.0847 54.31 40.0847 52.97V50.6C39.5847 51.38 38.8947 52.02 38.0147 52.52C37.1347 53 36.1047 53.24 34.9247 53.24C33.5447 53.24 32.2947 52.89 31.1747 52.19C30.0547 51.47 29.1647 50.46 28.5047 49.16C27.8647 47.84 27.5447 46.32 27.5447 44.6C27.5447 42.88 27.8647 41.37 28.5047 40.07C29.1647 38.77 30.0547 37.77 31.1747 37.07C32.2947 36.37 33.5447 36.02 34.9247 36.02ZM40.0847 44.63C40.0847 43.35 39.7247 42.34 39.0047 41.6C38.3047 40.86 37.4447 40.49 36.4247 40.49C35.4047 40.49 34.5347 40.86 33.8147 41.6C33.1147 42.32 32.7647 43.32 32.7647 44.6C32.7647 45.88 33.1147 46.9 33.8147 47.66C34.5347 48.4 35.4047 48.77 36.4247 48.77C37.4447 48.77 38.3047 48.4 39.0047 47.66C39.7247 46.92 40.0847 45.91 40.0847 44.63ZM58.826 36.08C60.786 36.08 62.346 36.72 63.506 38C64.686 39.26 65.276 41 65.276 43.22V53H60.176V43.91C60.176 42.79 59.886 41.92 59.306 41.3C58.726 40.68 57.946 40.37 56.966 40.37C55.986 40.37 55.206 40.68 54.626 41.3C54.046 41.92 53.756 42.79 53.756 43.91V53H48.626V36.26H53.756V38.48C54.276 37.74 54.976 37.16 55.856 36.74C56.736 36.3 57.726 36.08 58.826 36.08ZM77.1783 34.52C76.2783 34.52 75.5383 34.26 74.9583 33.74C74.3983 33.2 74.1183 32.54 74.1183 31.76C74.1183 30.96 74.3983 30.3 74.9583 29.78C75.5383 29.24 76.2783 28.97 77.1783 28.97C78.0583 28.97 78.7783 29.24 79.3383 29.78C79.9183 30.3 80.2083 30.96 80.2083 31.76C80.2083 32.54 79.9183 33.2 79.3383 33.74C78.7783 34.26 78.0583 34.52 77.1783 34.52ZM79.7283 36.26V53H74.5983V36.26H79.7283ZM93.3459 36.08C95.3059 36.08 96.8659 36.72 98.0259 38C99.2059 39.26 99.7959 41 99.7959 43.22V53H94.6959V43.91C94.6959 42.79 94.4059 41.92 93.8259 41.3C93.2459 40.68 92.4659 40.37 91.4859 40.37C90.5059 40.37 89.7259 40.68 89.1459 41.3C88.5659 41.92 88.2759 42.79 88.2759 43.91V53H83.1459V36.26H88.2759V38.48C88.7959 37.74 89.4959 37.16 90.3759 36.74C91.2559 36.3 92.2459 36.08 93.3459 36.08ZM118.448 48.65V53H115.838C113.978 53 112.528 52.55 111.488 51.65C110.448 50.73 109.928 49.24 109.928 47.18V40.52H107.888V36.26H109.928V32.18H115.058V36.26H118.418V40.52H115.058V47.24C115.058 47.74 115.178 48.1 115.418 48.32C115.658 48.54 116.058 48.65 116.618 48.65H118.448ZM128.626 53.24C126.986 53.24 125.506 52.89 124.186 52.19C122.886 51.49 121.856 50.49 121.096 49.19C120.356 47.89 119.986 46.37 119.986 44.63C119.986 42.91 120.366 41.4 121.126 40.1C121.886 38.78 122.926 37.77 124.246 37.07C125.566 36.37 127.046 36.02 128.686 36.02C130.326 36.02 131.806 36.37 133.126 37.07C134.446 37.77 135.486 38.78 136.246 40.1C137.006 41.4 137.386 42.91 137.386 44.63C137.386 46.35 136.996 47.87 136.216 49.19C135.456 50.49 134.406 51.49 133.066 52.19C131.746 52.89 130.266 53.24 128.626 53.24ZM128.626 48.8C129.606 48.8 130.436 48.44 131.116 47.72C131.816 47 132.166 45.97 132.166 44.63C132.166 43.29 131.826 42.26 131.146 41.54C130.486 40.82 129.666 40.46 128.686 40.46C127.686 40.46 126.856 40.82 126.196 41.54C125.536 42.24 125.206 43.27 125.206 44.63C125.206 45.97 125.526 47 126.166 47.72C126.826 48.44 127.646 48.8 128.626 48.8ZM152.225 36.02C153.405 36.02 154.435 36.26 155.315 36.74C156.215 37.22 156.905 37.85 157.385 38.63V36.26H162.515V52.97C162.515 54.51 162.205 55.9 161.585 57.14C160.985 58.4 160.055 59.4 158.795 60.14C157.555 60.88 156.005 61.25 154.145 61.25C151.665 61.25 149.655 60.66 148.115 59.48C146.575 58.32 145.695 56.74 145.475 54.74H150.545C150.705 55.38 151.085 55.88 151.685 56.24C152.285 56.62 153.025 56.81 153.905 56.81C154.965 56.81 155.805 56.5 156.425 55.88C157.065 55.28 157.385 54.31 157.385 52.97V50.6C156.885 51.38 156.195 52.02 155.315 52.52C154.435 53 153.405 53.24 152.225 53.24C150.845 53.24 149.595 52.89 148.475 52.19C147.355 51.47 146.465 50.46 145.805 49.16C145.165 47.84 144.845 46.32 144.845 44.6C144.845 42.88 145.165 41.37 145.805 40.07C146.465 38.77 147.355 37.77 148.475 37.07C149.595 36.37 150.845 36.02 152.225 36.02ZM157.385 44.63C157.385 43.35 157.025 42.34 156.305 41.6C155.605 40.86 154.745 40.49 153.725 40.49C152.705 40.49 151.835 40.86 151.115 41.6C150.415 42.32 150.065 43.32 150.065 44.6C150.065 45.88 150.415 46.9 151.115 47.66C151.835 48.4 152.705 48.77 153.725 48.77C154.745 48.77 155.605 48.4 156.305 47.66C157.025 46.92 157.385 45.91 157.385 44.63ZM181.706 44.36C181.706 44.84 181.676 45.34 181.616 45.86H170.006C170.086 46.9 170.416 47.7 170.996 48.26C171.596 48.8 172.326 49.07 173.186 49.07C174.466 49.07 175.356 48.53 175.856 47.45H181.316C181.036 48.55 180.526 49.54 179.786 50.42C179.066 51.3 178.156 51.99 177.056 52.49C175.956 52.99 174.726 53.24 173.366 53.24C171.726 53.24 170.266 52.89 168.986 52.19C167.706 51.49 166.706 50.49 165.986 49.19C165.266 47.89 164.906 46.37 164.906 44.63C164.906 42.89 165.256 41.37 165.956 40.07C166.676 38.77 167.676 37.77 168.956 37.07C170.236 36.37 171.706 36.02 173.366 36.02C174.986 36.02 176.426 36.36 177.686 37.04C178.946 37.72 179.926 38.69 180.626 39.95C181.346 41.21 181.706 42.68 181.706 44.36ZM176.456 43.01C176.456 42.13 176.156 41.43 175.556 40.91C174.956 40.39 174.206 40.13 173.306 40.13C172.446 40.13 171.716 40.38 171.116 40.88C170.536 41.38 170.176 42.09 170.036 43.01H176.456ZM193.442 48.65V53H190.832C188.972 53 187.522 52.55 186.482 51.65C185.442 50.73 184.922 49.24 184.922 47.18V40.52H182.882V36.26H184.922V32.18H190.052V36.26H193.412V40.52H190.052V47.24C190.052 47.74 190.172 48.1 190.412 48.32C190.652 48.54 191.052 48.65 191.612 48.65H193.442ZM208.867 53.24C207.407 53.24 206.107 52.99 204.967 52.49C203.827 51.99 202.927 51.31 202.267 50.45C201.607 49.57 201.237 48.59 201.157 47.51H206.227C206.287 48.09 206.557 48.56 207.037 48.92C207.517 49.28 208.107 49.46 208.807 49.46C209.447 49.46 209.937 49.34 210.277 49.1C210.637 48.84 210.817 48.51 210.817 48.11C210.817 47.63 210.567 47.28 210.067 47.06C209.567 46.82 208.757 46.56 207.637 46.28C206.437 46 205.437 45.71 204.637 45.41C203.837 45.09 203.147 44.6 202.567 43.94C201.987 43.26 201.697 42.35 201.697 41.21C201.697 40.25 201.957 39.38 202.477 38.6C203.017 37.8 203.797 37.17 204.817 36.71C205.857 36.25 207.087 36.02 208.507 36.02C210.607 36.02 212.257 36.54 213.457 37.58C214.677 38.62 215.377 40 215.557 41.72H210.817C210.737 41.14 210.477 40.68 210.037 40.34C209.617 40 209.057 39.83 208.357 39.83C207.757 39.83 207.297 39.95 206.977 40.19C206.657 40.41 206.497 40.72 206.497 41.12C206.497 41.6 206.747 41.96 207.247 42.2C207.767 42.44 208.567 42.68 209.647 42.92C210.887 43.24 211.897 43.56 212.677 43.88C213.457 44.18 214.137 44.68 214.717 45.38C215.317 46.06 215.627 46.98 215.647 48.14C215.647 49.12 215.367 50 214.807 50.78C214.267 51.54 213.477 52.14 212.437 52.58C211.417 53.02 210.227 53.24 208.867 53.24ZM227.816 48.65V53H225.206C223.346 53 221.896 52.55 220.856 51.65C219.816 50.73 219.296 49.24 219.296 47.18V40.52H217.256V36.26H219.296V32.18H224.426V36.26H227.786V40.52H224.426V47.24C224.426 47.74 224.546 48.1 224.786 48.32C225.026 48.54 225.426 48.65 225.986 48.65H227.816ZM229.353 44.6C229.353 42.88 229.673 41.37 230.313 40.07C230.973 38.77 231.863 37.77 232.983 37.07C234.103 36.37 235.353 36.02 236.733 36.02C237.913 36.02 238.943 36.26 239.823 36.74C240.723 37.22 241.413 37.85 241.893 38.63V36.26H247.023V53H241.893V50.63C241.393 51.41 240.693 52.04 239.793 52.52C238.913 53 237.883 53.24 236.703 53.24C235.343 53.24 234.103 52.89 232.983 52.19C231.863 51.47 230.973 50.46 230.313 49.16C229.673 47.84 229.353 46.32 229.353 44.6ZM241.893 44.63C241.893 43.35 241.533 42.34 240.813 41.6C240.113 40.86 239.253 40.49 238.233 40.49C237.213 40.49 236.343 40.86 235.623 41.6C234.923 42.32 234.573 43.32 234.573 44.6C234.573 45.88 234.923 46.9 235.623 47.66C236.343 48.4 237.213 48.77 238.233 48.77C239.253 48.77 240.113 48.4 240.813 47.66C241.533 46.92 241.893 45.91 241.893 44.63ZM255.565 39.05C256.165 38.13 256.915 37.41 257.815 36.89C258.715 36.35 259.715 36.08 260.815 36.08V41.51H259.405C258.125 41.51 257.165 41.79 256.525 42.35C255.885 42.89 255.565 43.85 255.565 45.23V53H250.435V36.26H255.565V39.05ZM272.297 48.65V53H269.687C267.827 53 266.377 52.55 265.337 51.65C264.297 50.73 263.777 49.24 263.777 47.18V40.52H261.737V36.26H263.777V32.18H268.907V36.26H272.267V40.52H268.907V47.24C268.907 47.74 269.027 48.1 269.267 48.32C269.507 48.54 269.907 48.65 270.467 48.65H272.297ZM290.634 44.36C290.634 44.84 290.604 45.34 290.544 45.86H278.934C279.014 46.9 279.344 47.7 279.924 48.26C280.524 48.8 281.254 49.07 282.114 49.07C283.394 49.07 284.284 48.53 284.784 47.45H290.244C289.964 48.55 289.454 49.54 288.714 50.42C287.994 51.3 287.084 51.99 285.984 52.49C284.884 52.99 283.654 53.24 282.294 53.24C280.654 53.24 279.194 52.89 277.914 52.19C276.634 51.49 275.634 50.49 274.914 49.19C274.194 47.89 273.834 46.37 273.834 44.63C273.834 42.89 274.184 41.37 274.884 40.07C275.604 38.77 276.604 37.77 277.884 37.07C279.164 36.37 280.634 36.02 282.294 36.02C283.914 36.02 285.354 36.36 286.614 37.04C287.874 37.72 288.854 38.69 289.554 39.95C290.274 41.21 290.634 42.68 290.634 44.36ZM285.384 43.01C285.384 42.13 285.084 41.43 284.484 40.91C283.884 40.39 283.134 40.13 282.234 40.13C281.374 40.13 280.644 40.38 280.044 40.88C279.464 41.38 279.104 42.09 278.964 43.01H285.384ZM292.02 44.6C292.02 42.88 292.34 41.37 292.98 40.07C293.64 38.77 294.53 37.77 295.65 37.07C296.77 36.37 298.02 36.02 299.4 36.02C300.5 36.02 301.5 36.25 302.4 36.71C303.32 37.17 304.04 37.79 304.56 38.57V30.8H309.69V53H304.56V50.6C304.08 51.4 303.39 52.04 302.49 52.52C301.61 53 300.58 53.24 299.4 53.24C298.02 53.24 296.77 52.89 295.65 52.19C294.53 51.47 293.64 50.46 292.98 49.16C292.34 47.84 292.02 46.32 292.02 44.6ZM304.56 44.63C304.56 43.35 304.2 42.34 303.48 41.6C302.78 40.86 301.92 40.49 300.9 40.49C299.88 40.49 299.01 40.86 298.29 41.6C297.59 42.32 297.24 43.32 297.24 44.6C297.24 45.88 297.59 46.9 298.29 47.66C299.01 48.4 299.88 48.77 300.9 48.77C301.92 48.77 302.78 48.4 303.48 47.66C304.2 46.92 304.56 45.91 304.56 44.63Z" fill="black"/>
<path d="M72.7026 62.106C71.7382 62.106 70.6946 63.6012 71.5208 64.4274C72.0684 64.9749 73.5232 64.9785 74.0743 64.4274C74.3608 64.1408 74.222 63.4533 74.222 63.0557C74.222 62.2394 73.1862 62.0686 72.5127 62.106C71.705 62.1509 72.3151 63.5258 72.7026 63.731C73.4341 64.1182 73.4564 63.8242 73.8422 63.2456" stroke="#ACACFF" stroke-width="2" stroke-linecap="round"/>
<path d="M87.0702 25.7686C87.3265 25.601 87.4489 25.3333 87.6231 25.0899C87.8802 24.7306 88.1247 24.3625 88.3853 24.0059C88.4665 23.8948 88.5633 23.786 88.6222 23.6607C88.6691 23.5611 88.6973 23.4578 88.7539 23.3623C88.835 23.2255 88.9236 23.0879 88.9602 22.9307C88.9881 22.8105 89.0058 22.7381 89.1211 22.8371C89.278 22.972 89.4534 23.0904 89.6038 23.2321C90.053 23.6554 90.3968 24.1882 90.8077 24.6481C91.0516 24.921 91.2844 25.1977 91.5201 25.4775C91.6677 25.6528 91.8125 25.8227 92.0204 25.9266" stroke="#ACACFF" stroke-width="2" stroke-linecap="round"/>
<path d="M86.8595 26.4269C86.9067 26.6709 87.0404 26.883 87.1462 27.1057C87.3744 27.5858 87.6338 28.0503 87.8586 28.5319C87.9872 28.8075 88.1294 29.0796 88.2258 29.3687C88.2684 29.4965 88.304 29.6366 88.3604 29.7592C88.3903 29.8245 88.4234 29.8836 88.4393 29.9552C88.4764 30.1221 88.5924 30.2767 88.6222 30.4409C88.6347 30.5098 89.0017 29.9794 89.0303 29.9318C89.2646 29.5421 89.4831 29.1433 89.7135 28.7513C89.8998 28.4344 90.1214 28.1664 90.3498 27.881C90.5988 27.5698 90.7612 27.2266 90.9656 26.8892C91.0351 26.7746 91.1929 26.5827 91.0388 26.5147C90.5198 26.2857 90.1082 25.767 89.6974 25.3883C89.551 25.2534 89.3965 25.1218 89.2673 24.9699C89.2537 24.954 89.2026 24.8874 89.2015 24.8939C89.0833 25.5437 88.9015 26.1755 88.7816 26.8248C88.7197 27.1606 88.4607 28.1372 88.6237 27.8371C88.8209 27.4738 89.1633 27.1685 89.4648 26.8921C89.6634 26.71 89.8615 26.5655 89.9022 26.2806C89.9327 26.0668 89.8832 25.8535 89.7632 25.675C89.6345 25.4835 89.4679 25.3204 89.298 25.166C89.1889 25.0667 89.0441 24.9652 88.9923 24.8207C88.9695 24.7572 88.9157 24.5574 89.0186 24.5574" stroke="#ACACFF" stroke-width="2" stroke-linecap="round"/>
<path d="M47.1948 1C46.2982 1 43.845 2.31228 45.6418 2.88983C46.4474 3.14876 47.3632 2.77205 47.3632 1.842" stroke="#8080FD" stroke-width="2" stroke-linecap="round"/>
<path d="M74.1478 64.7426C74.1331 64.8747 73.8654 64.9822 73.7488 65.0167C73.5519 65.0751 73.2448 65.0372 73.0392 65.0219C72.6537 64.9934 72.2746 64.777 71.9236 64.642C71.7095 64.5596 71.5646 64.2919 71.4777 64.1007C71.384 63.8944 71.3684 63.6531 71.3684 63.431" stroke="#8080FD" stroke-width="2" stroke-linecap="round"/>
<path d="M86.4702 25.9431C86.4702 26.342 86.787 26.6827 86.9328 27.0391C87.1629 27.6016 87.4266 28.1455 87.6872 28.6955C88.0173 29.3924 88.4059 30.0849 88.6479 30.8109" stroke="#8080FD" stroke-width="2" stroke-linecap="round"/>
<path d="M91.0826 25.8685C91.1604 25.8685 91.1881 25.973 91.1986 26.0319C91.2126 26.111 91.1639 26.1282 91.1116 26.171C91.0868 26.1912 91.0555 26.1996 91.0259 26.2099C90.985 26.224 91.0213 26.1953 91.0358 26.169C91.1196 26.017 91.1239 25.8057 91.0707 25.6431C91.0482 25.5742 90.996 25.5363 90.9527 25.4822C90.9101 25.4289 90.8681 25.3752 90.8242 25.3227C90.8167 25.3137 90.724 25.2051 90.7227 25.2067C90.7197 25.2108 90.8761 25.4429 90.8862 25.4658C90.9868 25.6947 90.9798 25.9047 90.8631 26.1229C90.7814 26.2756 90.7216 26.4412 90.6674 26.604" stroke="white" stroke-width="2" stroke-linecap="round"/>
<path d="M243.681 21.5843C243.442 21.9357 243.251 22.2605 243.597 22.6362C243.859 22.9205 244.257 23.0316 244.629 23.0908C245.371 23.2084 246.428 23.4998 246.805 22.6395C246.977 22.2446 246.91 21.8377 246.746 21.4642C246.612 21.157 245.963 20.7847 245.61 20.7661C244.932 20.7304 243.736 20.7676 243.869 21.7142C243.969 22.4228 244.905 22.4713 245.467 22.4609C245.838 22.454 245.661 21.915 245.379 21.8797C245.152 21.8513 244.529 21.9788 244.915 22.2791C244.964 22.3175 245.264 22.4119 245.305 22.318C245.447 21.9863 244.886 21.4696 244.694 21.3018C244.396 21.0411 243.815 20.6456 243.389 20.8765C242.984 21.0957 242.969 21.8549 243.022 22.2401C243.088 22.7128 243.448 22.874 243.882 22.9154C244.086 22.9349 244.432 23.0005 244.558 22.8116" stroke="#ACACFF" stroke-width="2" stroke-linecap="round"/>
<path d="M266.893 5.79541C267.331 5.64388 267.787 5.37025 268.117 5.04021C268.288 4.86877 268.334 5.2925 268.403 5.43083C268.532 5.68804 268.818 6.13316 269.08 6.26415" stroke="#8080FD" stroke-width="2" stroke-linecap="round"/>
<path d="M243.192 21.5383C243.167 21.7334 243.073 22.0949 243.192 22.2835C243.294 22.4462 243.388 22.6145 243.526 22.7523C243.724 22.9503 243.932 22.977 244.185 23.0656C244.507 23.1785 244.839 23.2075 245.163 23.3072C245.443 23.3932 245.737 23.4177 246.029 23.4177" stroke="#8080FD" stroke-width="2" stroke-linecap="round"/>
<path d="M119.008 65.2963C119.008 65.1684 118.908 65.476 118.899 65.4902C118.552 66.0812 118.069 66.6304 117.641 67.1646C117.262 67.6393 116.833 68.0617 116.407 68.4937C116.347 68.5541 115.994 68.9163 116 68.9004C116.287 68.1542 117.032 67.3427 117.556 66.7484C117.853 66.4125 118.167 66.1085 118.412 65.7409C118.767 65.2081 119.213 65.2916 119.812 65.2963C122.353 65.3163 124.894 65.3814 127.437 65.3814" stroke="#ACACFF" stroke-width="2" stroke-linecap="round"/>
<path d="M116.284 69.2126C117.346 70.3193 118.583 71.2202 119.633 72.3248C119.987 72.6983 120.261 73.2076 120.626 73.5546C120.881 73.7969 121.671 72.6014 121.789 72.4573C123 70.9783 124.358 69.8595 125.819 68.645C126.49 68.087 127.049 67.3959 127.626 66.7437C127.795 66.5527 128.053 66.3706 128.184 66.1477C128.472 65.6588 127.568 66.1379 127.295 66.1903C126.428 66.3562 125.545 66.3968 124.674 66.5356C123.975 66.647 123.294 66.8397 122.589 66.9139C121.642 67.0135 120.642 67.0812 119.694 66.9565C119.4 66.9178 119.055 66.8691 118.757 66.9187C118.58 66.9483 118.668 67.4714 118.668 67.595C118.668 68.049 118.546 68.8752 118.261 69.2315C117.8 69.808 119.582 69.1499 119.765 69.1086C121.395 68.7409 123.043 68.3032 124.627 67.7653C124.899 67.6728 124.843 67.5873 124.987 67.4437C125.042 67.3886 125.167 67.2902 125.204 67.3585C125.446 67.801 123.715 68.8345 123.501 68.9761C122.675 69.5246 121.774 70.0112 121.004 70.641C120.667 70.9171 120.742 71.0829 120.474 70.6221C119.92 69.6661 119.321 68.7676 118.611 67.9214C118.34 67.598 118.44 67.7935 118.635 67.9876C119.324 68.6774 120.441 69.3474 120.366 70.4424C120.287 71.577 118.049 70.2135 117.627 69.9883C117.201 69.7613 119.284 69.1595 119.434 69.1275" stroke="#ACACFF" stroke-width="2" stroke-linecap="round"/>
<path d="M120.91 73.5862C120.737 73.4618 120.635 73.2655 120.469 73.1276C120.343 73.0218 120.228 72.9045 120.111 72.7877C119.819 72.4959 119.623 72.1212 119.333 71.8255C118.86 71.3418 118.313 70.9306 117.74 70.5726C117.412 70.3675 117.05 70.167 116.746 69.9298C116.61 69.824 116.412 69.6486 116.332 69.4958C116.267 69.3732 116.212 69.2314 116.119 69.1273C115.863 68.8387 116.143 68.7119 116.275 68.4639C116.42 68.1888 116.673 67.9226 116.893 67.6901C117.022 67.553 117.103 67.3062 117.188 67.1373C117.359 66.7958 117.535 66.5241 117.777 66.2243C117.929 66.0362 118.046 65.8061 118.154 65.5896C118.25 65.3981 118.306 65.4742 118.232 65.6797C118.107 66.0244 117.906 66.3288 117.835 66.6931C117.784 66.9509 117.742 67.2107 117.695 67.469C117.667 67.6229 117.609 67.7724 117.595 67.9296C117.58 68.1082 117.603 68.2855 117.575 68.4639C117.429 69.3944 118.321 69.8279 118.973 70.2328C119.533 70.5804 119.853 71.1255 120.156 71.6884C120.283 71.9232 120.545 72.1681 120.725 72.3681C120.87 72.5284 120.947 72.7061 121.02 72.9065C121.075 73.0561 121.094 73.2248 121.094 73.3835C121.094 73.4388 121.094 73.494 121.094 73.5493C121.094 73.5926 121.085 73.5411 121.078 73.5248C120.987 73.3275 120.844 73.1478 120.719 72.972C120.214 72.2599 119.641 71.5927 119.288 70.7855C119.072 70.2921 118.939 69.7713 118.735 69.2747C118.589 68.9166 118.533 68.4892 118.351 68.1507C118.285 68.0295 118.256 67.8063 118.256 67.6696C118.256 67.2498 118.264 66.8366 118.295 66.4187C118.312 66.1905 118.318 65.9446 118.422 65.737C118.515 65.5507 118.654 65.3594 118.828 65.2395C118.933 65.1667 119.047 65.1145 119.104 65" stroke="#8080FD" stroke-width="2" stroke-linecap="round"/>
<path d="M121.02 73.5493C121.382 73.1874 121.716 72.7957 122.107 72.4643C122.327 72.2783 122.469 72.0098 122.584 71.7457C122.609 71.6891 122.726 71.5268 122.709 71.4693C122.678 71.3597 122.06 71.3541 121.95 71.3301C121.618 71.2579 121.166 70.8807 121.012 70.5849C120.436 69.4756 120.156 68.172 120.064 66.9347C120.033 66.5106 120.076 66.0833 120.099 65.6633C120.111 65.4517 120.209 65.2482 120.209 65.0369" stroke="#8080FD" stroke-width="2" stroke-linecap="round"/>
<path d="M126.706 66.6976C126.65 66.6976 126.476 66.6666 126.476 66.7666C126.476 66.8988 127.117 66.5597 127.162 66.5149C127.202 66.4749 127.399 66.2173 127.344 66.1508C127.313 66.1121 127.173 66.1044 127.13 66.1009C126.992 66.0899 126.927 66.1516 126.914 66.2849C126.897 66.4564 127.121 66.4418 127.091 66.3245C127.045 66.1424 126.546 66.1278 126.49 66.3079C126.443 66.456 126.713 66.4906 126.798 66.4906" stroke="white" stroke-width="2" stroke-linecap="round"/>
<path d="M306.6 72.978C306.856 72.8103 306.979 72.5426 307.153 72.2992C307.41 71.94 307.654 71.5718 307.915 71.2153C307.996 71.1041 308.093 70.9954 308.152 70.87C308.199 70.7704 308.227 70.6672 308.284 70.5716C308.365 70.4348 308.453 70.2972 308.49 70.1401C308.518 70.0198 308.536 69.9475 308.651 70.0465C308.808 70.1813 308.983 70.2997 309.134 70.4414C309.583 70.8647 309.927 71.3976 310.337 71.8574C310.581 72.1303 310.814 72.407 311.05 72.6869C311.197 72.8622 311.342 73.032 311.55 73.1359" stroke="#ACACFF" stroke-width="2" stroke-linecap="round"/>
<path d="M306.389 73.6362C306.436 73.8802 306.57 74.0923 306.676 74.315C306.904 74.7951 307.164 75.2596 307.388 75.7412C307.517 76.0168 307.659 76.2889 307.756 76.5779C307.798 76.7057 307.834 76.8459 307.89 76.9685C307.92 77.0337 307.953 77.0929 307.969 77.1645C308.006 77.3314 308.122 77.486 308.152 77.6502C308.165 77.7191 308.532 77.1887 308.56 77.1411C308.794 76.7514 309.013 76.3526 309.243 75.9606C309.43 75.6436 309.651 75.3757 309.88 75.0903C310.129 74.779 310.291 74.4359 310.495 74.0985C310.565 73.9839 310.723 73.792 310.569 73.724C310.05 73.495 309.638 72.9763 309.227 72.5976C309.081 72.4627 308.926 72.3311 308.797 72.1792C308.783 72.1633 308.732 72.0967 308.731 72.1032C308.613 72.753 308.431 73.3847 308.311 74.0341C308.249 74.3699 307.991 75.3465 308.153 75.0464C308.351 74.6831 308.693 74.3778 308.995 74.1014C309.193 73.9193 309.391 73.7748 309.432 73.4899C309.463 73.2761 309.413 73.0628 309.293 72.8843C309.164 72.6928 308.998 72.5297 308.828 72.3753C308.719 72.276 308.574 72.1745 308.522 72.03C308.499 71.9665 308.446 71.7667 308.548 71.7667" stroke="#ACACFF" stroke-width="2" stroke-linecap="round"/>
<path d="M306 73.1524C306 73.5513 306.317 73.892 306.463 74.2484C306.693 74.8109 306.956 75.3548 307.217 75.9048C307.547 76.6017 307.936 77.2942 308.178 78.0202" stroke="#8080FD" stroke-width="2" stroke-linecap="round"/>
<path d="M310.612 73.0778C310.69 73.0778 310.718 73.1824 310.728 73.2413C310.742 73.3204 310.694 73.3375 310.641 73.3803C310.617 73.4006 310.585 73.409 310.556 73.4192C310.515 73.4334 310.551 73.4046 310.566 73.3783C310.649 73.2264 310.654 73.015 310.6 72.8524C310.578 72.7835 310.526 72.7456 310.483 72.6916C310.44 72.6382 310.398 72.5846 310.354 72.5321C310.346 72.5231 310.254 72.4144 310.253 72.4161C310.249 72.4202 310.406 72.6522 310.416 72.6751C310.517 72.9041 310.51 73.114 310.393 73.3322C310.311 73.485 310.251 73.6505 310.197 73.8133" stroke="white" stroke-width="2" stroke-linecap="round"/>
</svg>
