<svg width="322" height="80" viewBox="0 0 322 80" fill="none" xmlns="http://www.w3.org/2000/svg">
<path d="M9.48 53.21C7.94 53.21 6.56 52.96 5.34 52.46C4.12 51.96 3.14 51.22 2.4 50.24C1.68 49.26 1.3 48.08 1.26 46.7H6.72C6.8 47.48 7.07 48.08 7.53 48.5C7.99 48.9 8.59 49.1 9.33 49.1C10.09 49.1 10.69 48.93 11.13 48.59C11.57 48.23 11.79 47.74 11.79 47.12C11.79 46.6 11.61 46.17 11.25 45.83C10.91 45.49 10.48 45.21 9.96 44.99C9.46 44.77 8.74 44.52 7.8 44.24C6.44 43.82 5.33 43.4 4.47 42.98C3.61 42.56 2.87 41.94 2.25 41.12C1.63 40.3 1.32 39.23 1.32 37.91C1.32 35.95 2.03 34.42 3.45 33.32C4.87 32.2 6.72 31.64 9 31.64C11.32 31.64 13.19 32.2 14.61 33.32C16.03 34.42 16.79 35.96 16.89 37.94H11.34C11.3 37.26 11.05 36.73 10.59 36.35C10.13 35.95 9.54 35.75 8.82 35.75C8.2 35.75 7.7 35.92 7.32 36.26C6.94 36.58 6.75 37.05 6.75 37.67C6.75 38.35 7.07 38.88 7.71 39.26C8.35 39.64 9.35 40.05 10.71 40.49C12.07 40.95 13.17 41.39 14.01 41.81C14.87 42.23 15.61 42.84 16.23 43.64C16.85 44.44 17.16 45.47 17.16 46.73C17.16 47.93 16.85 49.02 16.23 50C15.63 50.98 14.75 51.76 13.59 52.34C12.43 52.92 11.06 53.21 9.48 53.21ZM22.597 34.52C21.697 34.52 20.957 34.26 20.377 33.74C19.817 33.2 19.537 32.54 19.537 31.76C19.537 30.96 19.817 30.3 20.377 29.78C20.957 29.24 21.697 28.97 22.597 28.97C23.477 28.97 24.197 29.24 24.757 29.78C25.337 30.3 25.627 30.96 25.627 31.76C25.627 32.54 25.337 33.2 24.757 33.74C24.197 34.26 23.477 34.52 22.597 34.52ZM25.147 36.26V53H20.017V36.26H25.147ZM34.9247 36.02C36.1047 36.02 37.1347 36.26 38.0147 36.74C38.9147 37.22 39.6047 37.85 40.0847 38.63V36.26H45.2147V52.97C45.2147 54.51 44.9047 55.9 44.2847 57.14C43.6847 58.4 42.7547 59.4 41.4947 60.14C40.2547 60.88 38.7047 61.25 36.8447 61.25C34.3647 61.25 32.3547 60.66 30.8147 59.48C29.2747 58.32 28.3947 56.74 28.1747 54.74H33.2447C33.4047 55.38 33.7847 55.88 34.3847 56.24C34.9847 56.62 35.7247 56.81 36.6047 56.81C37.6647 56.81 38.5047 56.5 39.1247 55.88C39.7647 55.28 40.0847 54.31 40.0847 52.97V50.6C39.5847 51.38 38.8947 52.02 38.0147 52.52C37.1347 53 36.1047 53.24 34.9247 53.24C33.5447 53.24 32.2947 52.89 31.1747 52.19C30.0547 51.47 29.1647 50.46 28.5047 49.16C27.8647 47.84 27.5447 46.32 27.5447 44.6C27.5447 42.88 27.8647 41.37 28.5047 40.07C29.1647 38.77 30.0547 37.77 31.1747 37.07C32.2947 36.37 33.5447 36.02 34.9247 36.02ZM40.0847 44.63C40.0847 43.35 39.7247 42.34 39.0047 41.6C38.3047 40.86 37.4447 40.49 36.4247 40.49C35.4047 40.49 34.5347 40.86 33.8147 41.6C33.1147 42.32 32.7647 43.32 32.7647 44.6C32.7647 45.88 33.1147 46.9 33.8147 47.66C34.5347 48.4 35.4047 48.77 36.4247 48.77C37.4447 48.77 38.3047 48.4 39.0047 47.66C39.7247 46.92 40.0847 45.91 40.0847 44.63ZM58.826 36.08C60.786 36.08 62.346 36.72 63.506 38C64.686 39.26 65.276 41 65.276 43.22V53H60.176V43.91C60.176 42.79 59.886 41.92 59.306 41.3C58.726 40.68 57.946 40.37 56.966 40.37C55.986 40.37 55.206 40.68 54.626 41.3C54.046 41.92 53.756 42.79 53.756 43.91V53H48.626V36.26H53.756V38.48C54.276 37.74 54.976 37.16 55.856 36.74C56.736 36.3 57.726 36.08 58.826 36.08ZM91.1283 36.26V53H85.9983V50.72C85.4783 51.46 84.7683 52.06 83.8683 52.52C82.9883 52.96 82.0083 53.18 80.9283 53.18C79.6483 53.18 78.5183 52.9 77.5383 52.34C76.5583 51.76 75.7983 50.93 75.2583 49.85C74.7183 48.77 74.4483 47.5 74.4483 46.04V36.26H79.5483V45.35C79.5483 46.47 79.8383 47.34 80.4183 47.96C80.9983 48.58 81.7783 48.89 82.7583 48.89C83.7583 48.89 84.5483 48.58 85.1283 47.96C85.7083 47.34 85.9983 46.47 85.9983 45.35V36.26H91.1283ZM99.6431 38.63C100.143 37.85 100.833 37.22 101.713 36.74C102.593 36.26 103.623 36.02 104.803 36.02C106.183 36.02 107.433 36.37 108.553 37.07C109.673 37.77 110.553 38.77 111.193 40.07C111.853 41.37 112.183 42.88 112.183 44.6C112.183 46.32 111.853 47.84 111.193 49.16C110.553 50.46 109.673 51.47 108.553 52.19C107.433 52.89 106.183 53.24 104.803 53.24C103.643 53.24 102.613 53 101.713 52.52C100.833 52.04 100.143 51.42 99.6431 50.66V60.98H94.5131V36.26H99.6431V38.63ZM106.963 44.6C106.963 43.32 106.603 42.32 105.883 41.6C105.183 40.86 104.313 40.49 103.273 40.49C102.253 40.49 101.383 40.86 100.663 41.6C99.9631 42.34 99.6131 43.35 99.6131 44.63C99.6131 45.91 99.9631 46.92 100.663 47.66C101.383 48.4 102.253 48.77 103.273 48.77C104.293 48.77 105.163 48.4 105.883 47.66C106.603 46.9 106.963 45.88 106.963 44.6ZM129.962 48.65V53H127.352C125.492 53 124.042 52.55 123.002 51.65C121.962 50.73 121.442 49.24 121.442 47.18V40.52H119.402V36.26H121.442V32.18H126.572V36.26H129.932V40.52H126.572V47.24C126.572 47.74 126.692 48.1 126.932 48.32C127.172 48.54 127.572 48.65 128.132 48.65H129.962ZM140.139 53.24C138.499 53.24 137.019 52.89 135.699 52.19C134.399 51.49 133.369 50.49 132.609 49.19C131.869 47.89 131.499 46.37 131.499 44.63C131.499 42.91 131.879 41.4 132.639 40.1C133.399 38.78 134.439 37.77 135.759 37.07C137.079 36.37 138.559 36.02 140.199 36.02C141.839 36.02 143.319 36.37 144.639 37.07C145.959 37.77 146.999 38.78 147.759 40.1C148.519 41.4 148.899 42.91 148.899 44.63C148.899 46.35 148.509 47.87 147.729 49.19C146.969 50.49 145.919 51.49 144.579 52.19C143.259 52.89 141.779 53.24 140.139 53.24ZM140.139 48.8C141.119 48.8 141.949 48.44 142.629 47.72C143.329 47 143.679 45.97 143.679 44.63C143.679 43.29 143.339 42.26 142.659 41.54C141.999 40.82 141.179 40.46 140.199 40.46C139.199 40.46 138.369 40.82 137.709 41.54C137.049 42.24 136.719 43.27 136.719 44.63C136.719 45.97 137.039 47 137.679 47.72C138.339 48.44 139.159 48.8 140.139 48.8ZM163.738 36.02C164.918 36.02 165.948 36.26 166.828 36.74C167.728 37.22 168.418 37.85 168.898 38.63V36.26H174.028V52.97C174.028 54.51 173.718 55.9 173.098 57.14C172.498 58.4 171.568 59.4 170.308 60.14C169.068 60.88 167.518 61.25 165.658 61.25C163.178 61.25 161.168 60.66 159.628 59.48C158.088 58.32 157.208 56.74 156.988 54.74H162.058C162.218 55.38 162.598 55.88 163.198 56.24C163.798 56.62 164.538 56.81 165.418 56.81C166.478 56.81 167.318 56.5 167.938 55.88C168.578 55.28 168.898 54.31 168.898 52.97V50.6C168.398 51.38 167.708 52.02 166.828 52.52C165.948 53 164.918 53.24 163.738 53.24C162.358 53.24 161.108 52.89 159.988 52.19C158.868 51.47 157.978 50.46 157.318 49.16C156.678 47.84 156.358 46.32 156.358 44.6C156.358 42.88 156.678 41.37 157.318 40.07C157.978 38.77 158.868 37.77 159.988 37.07C161.108 36.37 162.358 36.02 163.738 36.02ZM168.898 44.63C168.898 43.35 168.538 42.34 167.818 41.6C167.118 40.86 166.258 40.49 165.238 40.49C164.218 40.49 163.348 40.86 162.628 41.6C161.928 42.32 161.578 43.32 161.578 44.6C161.578 45.88 161.928 46.9 162.628 47.66C163.348 48.4 164.218 48.77 165.238 48.77C166.258 48.77 167.118 48.4 167.818 47.66C168.538 46.92 168.898 45.91 168.898 44.63ZM193.22 44.36C193.22 44.84 193.19 45.34 193.13 45.86H181.52C181.6 46.9 181.93 47.7 182.51 48.26C183.11 48.8 183.84 49.07 184.7 49.07C185.98 49.07 186.87 48.53 187.37 47.45H192.83C192.55 48.55 192.04 49.54 191.3 50.42C190.58 51.3 189.67 51.99 188.57 52.49C187.47 52.99 186.24 53.24 184.88 53.24C183.24 53.24 181.78 52.89 180.5 52.19C179.22 51.49 178.22 50.49 177.5 49.19C176.78 47.89 176.42 46.37 176.42 44.63C176.42 42.89 176.77 41.37 177.47 40.07C178.19 38.77 179.19 37.77 180.47 37.07C181.75 36.37 183.22 36.02 184.88 36.02C186.5 36.02 187.94 36.36 189.2 37.04C190.46 37.72 191.44 38.69 192.14 39.95C192.86 41.21 193.22 42.68 193.22 44.36ZM187.97 43.01C187.97 42.13 187.67 41.43 187.07 40.91C186.47 40.39 185.72 40.13 184.82 40.13C183.96 40.13 183.23 40.38 182.63 40.88C182.05 41.38 181.69 42.09 181.55 43.01H187.97ZM204.956 48.65V53H202.346C200.486 53 199.036 52.55 197.996 51.65C196.956 50.73 196.436 49.24 196.436 47.18V40.52H194.396V36.26H196.436V32.18H201.566V36.26H204.926V40.52H201.566V47.24C201.566 47.74 201.686 48.1 201.926 48.32C202.166 48.54 202.566 48.65 203.126 48.65H204.956ZM220.381 53.24C218.921 53.24 217.621 52.99 216.481 52.49C215.341 51.99 214.441 51.31 213.781 50.45C213.121 49.57 212.751 48.59 212.671 47.51H217.741C217.801 48.09 218.071 48.56 218.551 48.92C219.031 49.28 219.621 49.46 220.321 49.46C220.961 49.46 221.451 49.34 221.791 49.1C222.151 48.84 222.331 48.51 222.331 48.11C222.331 47.63 222.081 47.28 221.581 47.06C221.081 46.82 220.271 46.56 219.151 46.28C217.951 46 216.951 45.71 216.151 45.41C215.351 45.09 214.661 44.6 214.081 43.94C213.501 43.26 213.211 42.35 213.211 41.21C213.211 40.25 213.471 39.38 213.991 38.6C214.531 37.8 215.311 37.17 216.331 36.71C217.371 36.25 218.601 36.02 220.021 36.02C222.121 36.02 223.771 36.54 224.971 37.58C226.191 38.62 226.891 40 227.071 41.72H222.331C222.251 41.14 221.991 40.68 221.551 40.34C221.131 40 220.571 39.83 219.871 39.83C219.271 39.83 218.811 39.95 218.491 40.19C218.171 40.41 218.011 40.72 218.011 41.12C218.011 41.6 218.261 41.96 218.761 42.2C219.281 42.44 220.081 42.68 221.161 42.92C222.401 43.24 223.411 43.56 224.191 43.88C224.971 44.18 225.651 44.68 226.231 45.38C226.831 46.06 227.141 46.98 227.161 48.14C227.161 49.12 226.881 50 226.321 50.78C225.781 51.54 224.991 52.14 223.951 52.58C222.931 53.02 221.741 53.24 220.381 53.24ZM239.329 48.65V53H236.719C234.859 53 233.409 52.55 232.369 51.65C231.329 50.73 230.809 49.24 230.809 47.18V40.52H228.769V36.26H230.809V32.18H235.939V36.26H239.299V40.52H235.939V47.24C235.939 47.74 236.059 48.1 236.299 48.32C236.539 48.54 236.939 48.65 237.499 48.65H239.329ZM240.867 44.6C240.867 42.88 241.187 41.37 241.827 40.07C242.487 38.77 243.377 37.77 244.497 37.07C245.617 36.37 246.867 36.02 248.247 36.02C249.427 36.02 250.457 36.26 251.337 36.74C252.237 37.22 252.927 37.85 253.407 38.63V36.26H258.537V53H253.407V50.63C252.907 51.41 252.207 52.04 251.307 52.52C250.427 53 249.397 53.24 248.217 53.24C246.857 53.24 245.617 52.89 244.497 52.19C243.377 51.47 242.487 50.46 241.827 49.16C241.187 47.84 240.867 46.32 240.867 44.6ZM253.407 44.63C253.407 43.35 253.047 42.34 252.327 41.6C251.627 40.86 250.767 40.49 249.747 40.49C248.727 40.49 247.857 40.86 247.137 41.6C246.437 42.32 246.087 43.32 246.087 44.6C246.087 45.88 246.437 46.9 247.137 47.66C247.857 48.4 248.727 48.77 249.747 48.77C250.767 48.77 251.627 48.4 252.327 47.66C253.047 46.92 253.407 45.91 253.407 44.63ZM267.078 39.05C267.678 38.13 268.428 37.41 269.328 36.89C270.228 36.35 271.228 36.08 272.328 36.08V41.51H270.918C269.638 41.51 268.678 41.79 268.038 42.35C267.398 42.89 267.078 43.85 267.078 45.23V53H261.948V36.26H267.078V39.05ZM283.81 48.65V53H281.2C279.34 53 277.89 52.55 276.85 51.65C275.81 50.73 275.29 49.24 275.29 47.18V40.52H273.25V36.26H275.29V32.18H280.42V36.26H283.78V40.52H280.42V47.24C280.42 47.74 280.54 48.1 280.78 48.32C281.02 48.54 281.42 48.65 281.98 48.65H283.81ZM302.148 44.36C302.148 44.84 302.118 45.34 302.058 45.86H290.448C290.528 46.9 290.858 47.7 291.438 48.26C292.038 48.8 292.768 49.07 293.628 49.07C294.908 49.07 295.798 48.53 296.298 47.45H301.758C301.478 48.55 300.968 49.54 300.228 50.42C299.508 51.3 298.598 51.99 297.498 52.49C296.398 52.99 295.168 53.24 293.808 53.24C292.168 53.24 290.708 52.89 289.428 52.19C288.148 51.49 287.148 50.49 286.428 49.19C285.708 47.89 285.348 46.37 285.348 44.63C285.348 42.89 285.698 41.37 286.398 40.07C287.118 38.77 288.118 37.77 289.398 37.07C290.678 36.37 292.148 36.02 293.808 36.02C295.428 36.02 296.868 36.36 298.128 37.04C299.388 37.72 300.368 38.69 301.068 39.95C301.788 41.21 302.148 42.68 302.148 44.36ZM296.898 43.01C296.898 42.13 296.598 41.43 295.998 40.91C295.398 40.39 294.648 40.13 293.748 40.13C292.888 40.13 292.158 40.38 291.558 40.88C290.978 41.38 290.618 42.09 290.478 43.01H296.898ZM303.534 44.6C303.534 42.88 303.854 41.37 304.494 40.07C305.154 38.77 306.044 37.77 307.164 37.07C308.284 36.37 309.534 36.02 310.914 36.02C312.014 36.02 313.014 36.25 313.914 36.71C314.834 37.17 315.554 37.79 316.074 38.57V30.8H321.204V53H316.074V50.6C315.594 51.4 314.904 52.04 314.004 52.52C313.124 53 312.094 53.24 310.914 53.24C309.534 53.24 308.284 52.89 307.164 52.19C306.044 51.47 305.154 50.46 304.494 49.16C303.854 47.84 303.534 46.32 303.534 44.6ZM316.074 44.63C316.074 43.35 315.714 42.34 314.994 41.6C314.294 40.86 313.434 40.49 312.414 40.49C311.394 40.49 310.524 40.86 309.804 41.6C309.104 42.32 308.754 43.32 308.754 44.6C308.754 45.88 309.104 46.9 309.804 47.66C310.524 48.4 311.394 48.77 312.414 48.77C313.434 48.77 314.294 48.4 314.994 47.66C315.714 46.92 316.074 45.91 316.074 44.63Z" fill="black"/>
<path d="M72.7026 62.106C71.7382 62.106 70.6946 63.6012 71.5208 64.4274C72.0684 64.9749 73.5232 64.9785 74.0743 64.4274C74.3608 64.1408 74.222 63.4533 74.222 63.0557C74.222 62.2394 73.1862 62.0686 72.5127 62.106C71.705 62.1509 72.3151 63.5258 72.7026 63.731C73.4341 64.1182 73.4564 63.8242 73.8422 63.2456" stroke="#ACACFF" stroke-width="2" stroke-linecap="round"/>
<path d="M87.0702 25.7686C87.3265 25.601 87.4489 25.3333 87.6231 25.0899C87.8802 24.7306 88.1247 24.3625 88.3853 24.0059C88.4665 23.8948 88.5633 23.7861 88.6222 23.6607C88.6691 23.5611 88.6973 23.4579 88.7539 23.3623C88.835 23.2255 88.9236 23.0879 88.9602 22.9308C88.9881 22.8105 89.0058 22.7381 89.1211 22.8371C89.278 22.972 89.4534 23.0904 89.6038 23.2321C90.053 23.6554 90.3968 24.1883 90.8077 24.6481C91.0516 24.921 91.2844 25.1977 91.5201 25.4775C91.6677 25.6528 91.8125 25.8227 92.0204 25.9266" stroke="#ACACFF" stroke-width="2" stroke-linecap="round"/>
<path d="M86.8595 26.4269C86.9067 26.6708 87.0404 26.883 87.1462 27.1057C87.3744 27.5858 87.6338 28.0503 87.8586 28.5319C87.9872 28.8075 88.1294 29.0796 88.2258 29.3686C88.2684 29.4964 88.304 29.6366 88.3604 29.7592C88.3903 29.8244 88.4234 29.8836 88.4393 29.9552C88.4764 30.1221 88.5924 30.2767 88.6222 30.4409C88.6347 30.5098 89.0017 29.9794 89.0303 29.9318C89.2646 29.5421 89.4831 29.1433 89.7135 28.7513C89.8998 28.4343 90.1214 28.1664 90.3498 27.881C90.5988 27.5697 90.7612 27.2266 90.9656 26.8892C91.0351 26.7746 91.1929 26.5827 91.0388 26.5147C90.5198 26.2857 90.1082 25.767 89.6974 25.3883C89.551 25.2534 89.3965 25.1218 89.2673 24.9699C89.2537 24.954 89.2026 24.8874 89.2015 24.8939C89.0833 25.5437 88.9015 26.1754 88.7816 26.8248C88.7197 27.1606 88.4607 28.1372 88.6237 27.8371C88.8209 27.4738 89.1633 27.1685 89.4648 26.8921C89.6634 26.71 89.8615 26.5655 89.9022 26.2806C89.9327 26.0668 89.8832 25.8535 89.7632 25.675C89.6345 25.4835 89.4679 25.3204 89.298 25.166C89.1889 25.0667 89.0441 24.9652 88.9923 24.8207C88.9695 24.7572 88.9157 24.5574 89.0186 24.5574" stroke="#ACACFF" stroke-width="2" stroke-linecap="round"/>
<path d="M47.1948 1C46.2982 1 43.845 2.31228 45.6418 2.88983C46.4474 3.14876 47.3632 2.77205 47.3632 1.842" stroke="#8080FD" stroke-width="2" stroke-linecap="round"/>
<path d="M74.1478 64.7426C74.1331 64.8747 73.8654 64.9822 73.7488 65.0167C73.5519 65.0751 73.2448 65.0372 73.0392 65.0219C72.6537 64.9934 72.2746 64.777 71.9236 64.642C71.7095 64.5596 71.5646 64.2919 71.4777 64.1007C71.384 63.8944 71.3684 63.6531 71.3684 63.431" stroke="#8080FD" stroke-width="2" stroke-linecap="round"/>
<path d="M86.4702 25.9431C86.4702 26.342 86.787 26.6826 86.9328 27.0391C87.1629 27.6015 87.4266 28.1455 87.6872 28.6955C88.0173 29.3924 88.4059 30.0849 88.6479 30.8109" stroke="#8080FD" stroke-width="2" stroke-linecap="round"/>
<path d="M91.0826 25.8685C91.1604 25.8685 91.1881 25.9731 91.1986 26.0319C91.2126 26.111 91.1639 26.1282 91.1116 26.171C91.0868 26.1912 91.0555 26.1996 91.0259 26.2099C90.985 26.224 91.0213 26.1953 91.0358 26.169C91.1196 26.017 91.1239 25.8057 91.0707 25.6431C91.0482 25.5742 90.996 25.5363 90.9527 25.4823C90.9101 25.4289 90.8681 25.3753 90.8242 25.3228C90.8167 25.3138 90.724 25.2051 90.7227 25.2068C90.7197 25.2109 90.8761 25.4429 90.8862 25.4658C90.9868 25.6947 90.9798 25.9047 90.8631 26.1229C90.7814 26.2756 90.7216 26.4412 90.6674 26.604" stroke="white" stroke-width="2" stroke-linecap="round"/>
<path d="M243.681 21.5843C243.442 21.9358 243.251 22.2606 243.597 22.6362C243.859 22.9205 244.257 23.0316 244.629 23.0908C245.371 23.2085 246.428 23.4998 246.805 22.6395C246.977 22.2446 246.91 21.8377 246.746 21.4642C246.612 21.1571 245.963 20.7847 245.61 20.7661C244.932 20.7304 243.736 20.7676 243.869 21.7142C243.969 22.4229 244.905 22.4713 245.467 22.4609C245.838 22.4541 245.661 21.915 245.379 21.8798C245.152 21.8513 244.529 21.9789 244.915 22.2791C244.964 22.3175 245.264 22.4119 245.305 22.3181C245.447 21.9863 244.886 21.4696 244.694 21.3018C244.396 21.0411 243.815 20.6456 243.389 20.8765C242.984 21.0957 242.969 21.8549 243.022 22.2401C243.088 22.7128 243.448 22.8741 243.882 22.9155C244.086 22.9349 244.432 23.0005 244.558 22.8116" stroke="#ACACFF" stroke-width="2" stroke-linecap="round"/>
<path d="M266.893 5.79541C267.331 5.64388 267.787 5.37025 268.117 5.04021C268.288 4.86877 268.334 5.2925 268.403 5.43083C268.532 5.68804 268.818 6.13316 269.08 6.26415" stroke="#8080FD" stroke-width="2" stroke-linecap="round"/>
<path d="M243.192 21.5383C243.167 21.7334 243.073 22.0949 243.192 22.2835C243.294 22.4462 243.388 22.6145 243.526 22.7523C243.724 22.9503 243.932 22.977 244.185 23.0656C244.507 23.1785 244.839 23.2075 245.163 23.3072C245.443 23.3932 245.737 23.4177 246.029 23.4177" stroke="#8080FD" stroke-width="2" stroke-linecap="round"/>
<path d="M119.008 65.2963C119.008 65.1684 118.908 65.476 118.899 65.4902C118.552 66.0812 118.069 66.6304 117.641 67.1646C117.262 67.6393 116.833 68.0617 116.407 68.4937C116.347 68.5541 115.994 68.9163 116 68.9004C116.287 68.1542 117.032 67.3427 117.556 66.7484C117.853 66.4125 118.167 66.1085 118.412 65.7409C118.767 65.2081 119.213 65.2916 119.812 65.2963C122.353 65.3163 124.894 65.3814 127.437 65.3814" stroke="#ACACFF" stroke-width="2" stroke-linecap="round"/>
<path d="M116.284 69.2126C117.346 70.3193 118.583 71.2202 119.633 72.3248C119.987 72.6982 120.261 73.2075 120.626 73.5545C120.881 73.7969 121.671 72.6014 121.789 72.4572C123 70.9782 124.358 69.8595 125.819 68.645C126.49 68.087 127.049 67.3958 127.626 66.7436C127.795 66.5527 128.053 66.3705 128.184 66.1477C128.472 65.6588 127.568 66.1379 127.295 66.1903C126.428 66.3561 125.545 66.3968 124.674 66.5355C123.975 66.647 123.294 66.8397 122.589 66.9139C121.642 67.0135 120.642 67.0812 119.694 66.9565C119.4 66.9178 119.055 66.869 118.757 66.9186C118.58 66.9482 118.668 67.4714 118.668 67.595C118.668 68.049 118.546 68.8752 118.261 69.2315C117.8 69.808 119.582 69.1498 119.765 69.1085C121.395 68.7408 123.043 68.3031 124.627 67.7653C124.899 67.6728 124.843 67.5873 124.987 67.4436C125.042 67.3886 125.167 67.2901 125.204 67.3585C125.446 67.801 123.715 68.8344 123.501 68.9761C122.675 69.5245 121.774 70.0112 121.004 70.641C120.667 70.9171 120.742 71.0829 120.474 70.6221C119.92 69.6661 119.321 68.7676 118.611 67.9214C118.34 67.598 118.44 67.7935 118.635 67.9876C119.324 68.6774 120.441 69.3474 120.366 70.4423C120.287 71.577 118.049 70.2134 117.627 69.9883C117.201 69.7613 119.284 69.1595 119.434 69.1275" stroke="#ACACFF" stroke-width="2" stroke-linecap="round"/>
<path d="M120.91 73.5862C120.737 73.4618 120.635 73.2655 120.469 73.1276C120.343 73.0218 120.228 72.9045 120.111 72.7877C119.819 72.4959 119.623 72.1212 119.333 71.8255C118.86 71.3418 118.313 70.9306 117.74 70.5726C117.412 70.3675 117.05 70.167 116.746 69.9298C116.61 69.824 116.412 69.6486 116.332 69.4958C116.267 69.3732 116.212 69.2314 116.119 69.1273C115.863 68.8387 116.143 68.7119 116.275 68.4639C116.42 68.1888 116.673 67.9226 116.893 67.6901C117.022 67.553 117.103 67.3062 117.188 67.1373C117.359 66.7958 117.535 66.5241 117.777 66.2243C117.929 66.0362 118.046 65.8061 118.154 65.5896C118.25 65.3981 118.306 65.4742 118.232 65.6797C118.107 66.0244 117.906 66.3288 117.835 66.6931C117.784 66.9509 117.742 67.2107 117.695 67.469C117.667 67.6229 117.609 67.7724 117.595 67.9296C117.58 68.1082 117.603 68.2855 117.575 68.4639C117.429 69.3944 118.321 69.8279 118.973 70.2328C119.533 70.5804 119.853 71.1255 120.156 71.6884C120.283 71.9232 120.545 72.1681 120.725 72.3681C120.87 72.5284 120.947 72.7061 121.02 72.9065C121.075 73.0561 121.094 73.2248 121.094 73.3835C121.094 73.4388 121.094 73.494 121.094 73.5493C121.094 73.5926 121.085 73.5411 121.078 73.5248C120.987 73.3275 120.844 73.1478 120.719 72.972C120.214 72.2599 119.641 71.5927 119.288 70.7855C119.072 70.2921 118.939 69.7713 118.735 69.2747C118.589 68.9166 118.533 68.4892 118.351 68.1507C118.285 68.0295 118.256 67.8063 118.256 67.6696C118.256 67.2498 118.264 66.8366 118.295 66.4187C118.312 66.1905 118.318 65.9446 118.422 65.737C118.515 65.5507 118.654 65.3594 118.828 65.2395C118.933 65.1667 119.047 65.1145 119.104 65" stroke="#8080FD" stroke-width="2" stroke-linecap="round"/>
<path d="M121.02 73.5493C121.382 73.1874 121.716 72.7957 122.107 72.4643C122.327 72.2783 122.469 72.0098 122.584 71.7457C122.609 71.6891 122.726 71.5267 122.709 71.4693C122.678 71.3597 122.06 71.3541 121.95 71.3301C121.618 71.2579 121.166 70.8807 121.012 70.5849C120.436 69.4756 120.156 68.172 120.064 66.9347C120.033 66.5106 120.076 66.0833 120.099 65.6633C120.111 65.4517 120.209 65.2482 120.209 65.0368" stroke="#8080FD" stroke-width="2" stroke-linecap="round"/>
<path d="M126.706 66.6977C126.65 66.6977 126.476 66.6666 126.476 66.7667C126.476 66.8988 127.117 66.5597 127.162 66.5149C127.202 66.4749 127.399 66.2173 127.344 66.1508C127.313 66.1121 127.173 66.1044 127.13 66.1009C126.992 66.0899 126.927 66.1516 126.914 66.2849C126.897 66.4564 127.121 66.4418 127.091 66.3246C127.045 66.1424 126.546 66.1279 126.49 66.3079C126.443 66.4561 126.713 66.4907 126.798 66.4907" stroke="white" stroke-width="2" stroke-linecap="round"/>
<path d="M306.6 72.978C306.856 72.8103 306.979 72.5426 307.153 72.2992C307.41 71.94 307.654 71.5718 307.915 71.2153C307.996 71.1041 308.093 70.9954 308.152 70.87C308.199 70.7704 308.227 70.6672 308.284 70.5716C308.365 70.4348 308.453 70.2972 308.49 70.1401C308.518 70.0198 308.536 69.9475 308.651 70.0465C308.808 70.1813 308.983 70.2997 309.134 70.4414C309.583 70.8647 309.927 71.3976 310.337 71.8574C310.581 72.1303 310.814 72.407 311.05 72.6869C311.197 72.8622 311.342 73.032 311.55 73.1359" stroke="#ACACFF" stroke-width="2" stroke-linecap="round"/>
<path d="M306.389 73.6362C306.436 73.8802 306.57 74.0923 306.676 74.315C306.904 74.7952 307.164 75.2596 307.388 75.7412C307.517 76.0168 307.659 76.2889 307.756 76.578C307.798 76.7058 307.834 76.846 307.89 76.9685C307.92 77.0338 307.953 77.0929 307.969 77.1646C308.006 77.3314 308.122 77.486 308.152 77.6502C308.165 77.7191 308.532 77.1887 308.56 77.1411C308.794 76.7514 309.013 76.3526 309.243 75.9606C309.43 75.6437 309.651 75.3757 309.88 75.0903C310.129 74.7791 310.291 74.4359 310.495 74.0985C310.565 73.9839 310.723 73.792 310.569 73.724C310.05 73.4951 309.638 72.9763 309.227 72.5976C309.081 72.4627 308.926 72.3311 308.797 72.1793C308.783 72.1633 308.732 72.0967 308.731 72.1032C308.613 72.753 308.431 73.3848 308.311 74.0341C308.249 74.37 307.991 75.3465 308.153 75.0464C308.351 74.6831 308.693 74.3778 308.995 74.1014C309.193 73.9193 309.391 73.7748 309.432 73.4899C309.463 73.2761 309.413 73.0628 309.293 72.8843C309.164 72.6928 308.998 72.5297 308.828 72.3753C308.719 72.276 308.574 72.1745 308.522 72.03C308.499 71.9665 308.446 71.7667 308.548 71.7667" stroke="#ACACFF" stroke-width="2" stroke-linecap="round"/>
<path d="M306 73.1524C306 73.5513 306.317 73.892 306.463 74.2484C306.693 74.8109 306.956 75.3548 307.217 75.9048C307.547 76.6017 307.936 77.2942 308.178 78.0202" stroke="#8080FD" stroke-width="2" stroke-linecap="round"/>
<path d="M310.612 73.0778C310.69 73.0778 310.718 73.1824 310.728 73.2412C310.742 73.3204 310.694 73.3375 310.641 73.3803C310.617 73.4006 310.585 73.409 310.556 73.4192C310.515 73.4334 310.551 73.4046 310.566 73.3783C310.649 73.2264 310.654 73.015 310.6 72.8524C310.578 72.7835 310.526 72.7456 310.483 72.6916C310.44 72.6382 310.398 72.5846 310.354 72.5321C310.346 72.5231 310.254 72.4144 310.253 72.4161C310.249 72.4202 310.406 72.6522 310.416 72.6751C310.517 72.9041 310.51 73.114 310.393 73.3322C310.311 73.4849 310.251 73.6505 310.197 73.8133" stroke="white" stroke-width="2" stroke-linecap="round"/>
</svg>
